M48
; DRILL file {KiCad 9.0.4} date 2026-04-29T11:10:33+0200
; FORMAT={-:-/ absolute / inch / decimal}
; #@! TF.CreationDate,2026-04-29T11:10:33+02:00
; #@! TF.GenerationSoftware,Kicad,Pcbnew,9.0.4
; #@! TF.FileFunction,Plated,1,2,PTH
FMAT,2
INCH
; #@! TA.AperFunction,Plated,PTH,ViaDrill
T1C0.0118
; #@! TA.AperFunction,Plated,PTH,ComponentDrill
T2C0.0300
; #@! TA.AperFunction,Plated,PTH,ComponentDrill
T3C0.0315
; #@! TA.AperFunction,Plated,PTH,ComponentDrill
T4C0.0374
; #@! TA.AperFunction,Plated,PTH,ComponentDrill
T5C0.0394
; #@! TA.AperFunction,Plated,PTH,ComponentDrill
T6C0.0400
; #@! TA.AperFunction,Plated,PTH,ComponentDrill
T7C0.1772
%
G90
G05
T1
X5.2165Y-6.1614
X5.6299Y-6.2402
X5.665Y-6.12
X5.725Y-6.235
X5.7677Y-5.1772
X5.8268Y-5.1969
X5.9115Y-4.7628
X5.9252Y-5.2559
X5.9646Y-6.6929
X6.0236Y-5.2559
X6.063Y-6.8701
X6.1024Y-6.3583
X6.1024Y-6.8307
X6.122Y-6.3189
X6.4173Y-6.5945
X6.455Y-6.17
X6.4567Y-6.5945
X6.65Y-6.1024
X6.6535Y-7.4213
X6.6929Y-6.6339
X6.745Y-6.1024
X6.752Y-6.6535
X6.7913Y-7.437
X6.811Y-6.6732
X6.8504Y-6.0236
X6.8504Y-6.6142
X7.0276Y-5.8465
X7.0512Y-6.807
X7.126Y-6.8307
X7.5128Y-6.063
X7.5128Y-6.2598
X7.6128Y-6.063
X7.6128Y-6.2598
X7.7128Y-6.063
X7.7128Y-6.2598
X7.8128Y-6.063
X7.8128Y-6.2598
X7.8543Y-5.9449
X7.874Y-5.0591
X7.8937Y-5.689
X7.8937Y-5.7283
X7.8937Y-5.7677
X7.8937Y-6.6929
X7.9724Y-5.6496
X7.9724Y-6.6929
X8.0906Y-6.7323
X8.1693Y-6.7323
X8.189Y-5.2953
X8.2087Y-7.4016
X8.248Y-6.8701
X8.248Y-7.9528
X8.3661Y-7.0276
X8.3661Y-7.185
X8.5433Y-6.7717
X8.7175Y-7.7136
X8.7205Y-7.5787
X8.7795Y-6.9094
X8.7795Y-6.9488
X8.7992Y-5.0591
X8.8484Y-6.3681
X8.8783Y-6.3781
X8.9173Y-6.7717
X8.9567Y-6.3386
X8.9764Y-6.3976
X9.0354Y-6.378
X9.0748Y-6.4173
X9.0748Y-7.4016
X9.0945Y-6.5945
X9.1339Y-6.2992
X9.1535Y-7.5
X9.1732Y-7.3425
X9.1929Y-7.8937
X9.2441Y-7.8622
X9.2835Y-7.0394
X9.3307Y-7.4016
X9.3307Y-7.5
X9.3425Y-7.8622
X9.3701Y-5.2165
X9.3701Y-5.6693
X9.3701Y-7.5394
X9.4094Y-7.4213
X9.4291Y-7.5394
X9.4488Y-7.8937
X9.4882Y-6.0433
X9.5098Y-6.002
X9.5481Y-5.9638
X9.6654Y-4.8425
X9.6654Y-5.9449
X9.7047Y-7.0866
X9.7244Y-7.3622
X9.7441Y-7.3228
X9.8268Y-8.0
X9.8524Y-6.4075
X9.9016Y-7.1457
X9.9134Y-6.4055
X9.9213Y-7.3228
X9.9429Y-7.5374
X9.9803Y-6.2598
X9.9811Y-6.3968
X10.0Y-7.5394
X10.0394Y-6.8701
X10.047Y-6.4293
X10.0591Y-6.8307
X10.1575Y-7.5197
X10.1969Y-6.5157
X10.2362Y-6.3189
X10.2362Y-7.8937
X10.2362Y-7.9331
X10.2362Y-7.9724
X10.2559Y-6.7913
X10.2572Y-6.3596
X10.4528Y-6.2598
X10.4528Y-6.3287
X10.6299Y-6.2402
X10.6313Y-7.7573
X10.6496Y-6.3012
X10.6821Y-5.9577
X10.685Y-6.87
X10.689Y-7.8937
X10.8465Y-4.8425
X10.8465Y-5.8379
X10.8465Y-7.5
X10.8858Y-7.5787
X10.9449Y-6.8307
X10.9449Y-6.8701
X10.9449Y-7.9331
X10.9449Y-7.9724
X11.1909Y-6.1319
X11.3189Y-5.5315
X11.3189Y-5.6299
X11.3976Y-5.7677
X11.4173Y-6.0531
X11.4764Y-7.0472
X11.4764Y-7.1457
X11.5059Y-6.0138
X11.5066Y-5.9737
X11.5354Y-5.748
X11.5354Y-5.8465
X11.7717Y-7.5394
X11.7913Y-6.1811
X12.0079Y-5.0
T2
X11.1898Y-5.1568
X11.1898Y-5.2568
X11.1898Y-5.3568
X11.1898Y-5.4568
X11.1898Y-5.5568
X11.1898Y-5.6568
X11.1898Y-5.7568
X11.1898Y-5.8568
T3
X11.0827Y-6.9472
X11.0827Y-7.0472
X11.0827Y-7.1472
T4
X5.5709Y-7.7559
X5.6693Y-7.7559
X5.7677Y-4.9803
X5.7677Y-7.7559
X5.8661Y-4.9803
X5.8661Y-7.7559
X5.9646Y-4.9803
X6.063Y-4.9803
X6.1614Y-4.9803
X6.2598Y-4.9803
X7.6575Y-7.7559
X7.7559Y-7.7559
X7.8543Y-7.7559
X7.9528Y-7.7559
X8.1496Y-4.9409
X8.248Y-4.9409
X8.3465Y-4.9409
X8.4449Y-4.9409
X8.5433Y-4.9409
X8.6417Y-4.9409
X8.9016Y-7.7165
X9.0Y-7.7165
X9.0984Y-7.7165
X9.1969Y-7.7165
X9.2953Y-7.7165
X9.3937Y-7.7165
X9.8268Y-7.7165
X9.9252Y-7.7165
X10.0236Y-7.7165
X10.122Y-7.7165
X10.2205Y-7.7165
X10.3189Y-7.7165
X10.3248Y-4.626
X10.4232Y-4.626
X10.5217Y-4.626
X10.6201Y-4.626
X10.7185Y-4.626
X10.752Y-7.7165
X10.7874Y-6.2402
X10.8169Y-4.626
X10.8504Y-7.7165
X10.8858Y-6.2402
X10.9488Y-7.7165
X10.9843Y-6.2402
X11.0472Y-7.7165
X11.0827Y-6.2402
X11.122Y-4.626
X11.1457Y-7.7165
X11.1811Y-6.2402
X11.2205Y-4.626
X11.2441Y-7.7165
X11.2795Y-6.2402
X11.3189Y-4.626
X11.4173Y-4.626
X11.5157Y-4.626
X11.6142Y-4.626
X11.6142Y-7.185
X11.6142Y-7.2835
X11.6142Y-7.3819
X11.6142Y-7.4803
X11.6142Y-7.5787
X11.6142Y-7.6772
X11.6339Y-5.8465
X11.6339Y-5.9449
X11.6339Y-6.0433
X11.6339Y-6.1417
X11.6339Y-6.2402
X11.6339Y-6.3386
X11.8691Y-4.6161
X11.8691Y-4.7146
X11.8691Y-4.813
X11.8691Y-4.9114
X11.8691Y-5.0098
X11.8691Y-5.1083
T5
X6.378Y-7.7559
X6.4764Y-7.7559
X7.0276Y-7.7559
X7.126Y-7.7559
X8.3661Y-7.7559
X8.4646Y-7.7559
X9.7689Y-5.5591
X9.8689Y-5.5591
X9.9067Y-6.5988
X9.9067Y-6.6988
X10.0067Y-6.5988
X10.0067Y-6.6988
X10.1067Y-6.5988
X10.1067Y-6.6988
X10.2067Y-6.5988
X10.2067Y-6.6988
X10.2413Y-5.5591
X10.3413Y-5.5591
X10.69Y-7.2846
X10.89Y-7.285
X11.1909Y-6.5738
X11.2894Y-6.5738
T6
X5.3528Y-4.7425
X5.3528Y-4.8425
X5.3528Y-4.9425
X5.3528Y-5.0425
X5.3528Y-5.1425
X5.3528Y-5.2425
X5.3528Y-5.3425
X5.3528Y-5.4425
X5.3528Y-5.5425
X5.3528Y-5.6425
X5.3528Y-5.7425
X5.3528Y-5.8425
X5.3528Y-5.9425
X5.3528Y-6.0425
X5.3528Y-6.1425
X5.3528Y-6.2425
X5.3528Y-6.3425
X5.3528Y-6.4425
X5.4528Y-4.7425
X5.4528Y-4.8425
X5.4528Y-4.9425
X5.4528Y-5.0425
X5.4528Y-5.1425
X5.4528Y-5.2425
X5.4528Y-5.3425
X5.4528Y-5.4425
X5.4528Y-5.5425
X5.4528Y-5.6425
X5.4528Y-5.7425
X5.4528Y-5.8425
X5.4528Y-5.9425
X5.4528Y-6.0425
X5.4528Y-6.1425
X5.4528Y-6.2425
X5.4528Y-6.3425
X5.4528Y-6.4425
X5.5528Y-4.5425
X5.6528Y-4.5425
X5.7528Y-4.5425
X5.7528Y-6.4425
X5.8528Y-4.5425
X5.8528Y-6.4425
X5.9528Y-4.5425
X5.9528Y-6.4425
X6.0528Y-4.5425
X6.0528Y-6.4425
X6.1528Y-4.5425
X6.1528Y-6.4425
X6.2528Y-4.5425
X6.2528Y-6.4425
X6.3528Y-6.4425
X6.4528Y-4.5425
X6.4528Y-6.4425
X6.5478Y-5.4425
X6.5478Y-5.5425
X6.5478Y-5.6425
X6.5528Y-4.5425
X6.6478Y-5.4425
X6.6478Y-5.5425
X6.6478Y-5.6425
X6.6528Y-4.5425
X6.6528Y-6.4425
X6.7528Y-4.5425
X6.7528Y-6.4425
X6.8528Y-4.5425
X6.8528Y-6.4425
X6.9528Y-4.5425
X6.9528Y-6.4425
X7.0528Y-4.5425
X7.0528Y-6.4425
X7.1528Y-4.5425
X7.1528Y-6.4425
X7.2528Y-6.4425
X7.3528Y-4.5425
X7.3528Y-6.4425
X7.4528Y-4.5425
X7.5128Y-6.4425
X7.5528Y-4.5425
X7.6128Y-6.4425
X7.6528Y-4.5425
X7.7128Y-6.4425
X7.7528Y-4.5425
X7.8128Y-6.4425
X7.8528Y-4.5425
X7.9128Y-6.4425
X7.9528Y-4.5425
X8.0128Y-6.4425
X8.0528Y-4.5425
X8.1128Y-6.4425
X8.2128Y-6.4425
X8.3128Y-6.4425
X8.4128Y-6.4425
T7
X10.3346Y-7.0276
X10.3346Y-7.311
M30
