%TF.GenerationSoftware,KiCad,Pcbnew,9.0.4*%
%TF.CreationDate,2026-04-29T11:10:31+02:00*%
%TF.ProjectId,Atlas V,41746c61-7320-4562-9e6b-696361645f70,rev?*%
%TF.SameCoordinates,Original*%
%TF.FileFunction,Profile,NP*%
%FSLAX46Y46*%
G04 Gerber Fmt 4.6, Leading zero omitted, Abs format (unit mm)*
G04 Created by KiCad (PCBNEW 9.0.4) date 2026-04-29 11:10:31*
%MOMM*%
%LPD*%
G01*
G04 APERTURE LIST*
%TA.AperFunction,Profile*%
%ADD10C,0.050000*%
%TD*%
G04 APERTURE END LIST*
D10*
X228500000Y-137000000D02*
G75*
G02*
X225500000Y-137000000I-1500000J0D01*
G01*
X225500000Y-137000000D02*
G75*
G02*
X228500000Y-137000000I1500000J0D01*
G01*
X307500000Y-111000000D02*
X307500000Y-204000000D01*
X296500000Y-100000000D02*
X296500000Y-111000000D01*
X228500000Y-180500000D02*
G75*
G02*
X225500000Y-180500000I-1500000J0D01*
G01*
X225500000Y-180500000D02*
G75*
G02*
X228500000Y-180500000I1500000J0D01*
G01*
X145000000Y-180500000D02*
G75*
G02*
X142000000Y-180500000I-1500000J0D01*
G01*
X142000000Y-180500000D02*
G75*
G02*
X145000000Y-180500000I1500000J0D01*
G01*
X219500000Y-111000000D02*
X219500000Y-100000000D01*
X219500000Y-215000000D02*
X128500000Y-215000000D01*
X273000000Y-148000000D02*
G75*
G02*
X270000000Y-148000000I-1500000J0D01*
G01*
X270000000Y-148000000D02*
G75*
G02*
X273000000Y-148000000I1500000J0D01*
G01*
X128500000Y-100000000D02*
X128500000Y-111000000D01*
X192000000Y-137000000D02*
G75*
G02*
X189000000Y-137000000I-1500000J0D01*
G01*
X189000000Y-137000000D02*
G75*
G02*
X192000000Y-137000000I1500000J0D01*
G01*
X281500000Y-204000000D02*
X219500000Y-204000000D01*
X296500000Y-100000000D02*
X281500000Y-100000000D01*
X181500000Y-137000000D02*
G75*
G02*
X178500000Y-137000000I-1500000J0D01*
G01*
X178500000Y-137000000D02*
G75*
G02*
X181500000Y-137000000I1500000J0D01*
G01*
X117500000Y-111000000D02*
X117500000Y-204000000D01*
X307500000Y-204000000D02*
X296500000Y-204000000D01*
X181500000Y-180500000D02*
G75*
G02*
X178500000Y-180500000I-1500000J0D01*
G01*
X178500000Y-180500000D02*
G75*
G02*
X181500000Y-180500000I1500000J0D01*
G01*
X296500000Y-215000000D02*
X281500000Y-215000000D01*
X219500000Y-100000000D02*
X128500000Y-100000000D01*
X281500000Y-215000000D02*
X281500000Y-204000000D01*
X296500000Y-204000000D02*
X296500000Y-215000000D01*
X281500000Y-100000000D02*
X281500000Y-111000000D01*
X145000000Y-137000000D02*
G75*
G02*
X142000000Y-137000000I-1500000J0D01*
G01*
X142000000Y-137000000D02*
G75*
G02*
X145000000Y-137000000I1500000J0D01*
G01*
X128500000Y-215000000D02*
X128500000Y-204000000D01*
X296500000Y-111000000D02*
X307500000Y-111000000D01*
X128500000Y-111000000D02*
X117500000Y-111000000D01*
X281500000Y-111000000D02*
X219500000Y-111000000D01*
X219500000Y-204000000D02*
X219500000Y-215000000D01*
X192000000Y-180500000D02*
G75*
G02*
X189000000Y-180500000I-1500000J0D01*
G01*
X189000000Y-180500000D02*
G75*
G02*
X192000000Y-180500000I1500000J0D01*
G01*
X128500000Y-204000000D02*
X117500000Y-204000000D01*
M02*
