%TF.GenerationSoftware,KiCad,Pcbnew,9.0.4*%
%TF.CreationDate,2026-04-29T11:10:31+02:00*%
%TF.ProjectId,Atlas V,41746c61-7320-4562-9e6b-696361645f70,rev?*%
%TF.SameCoordinates,Original*%
%TF.FileFunction,Legend,Top*%
%TF.FilePolarity,Positive*%
%FSLAX46Y46*%
G04 Gerber Fmt 4.6, Leading zero omitted, Abs format (unit mm)*
G04 Created by KiCad (PCBNEW 9.0.4) date 2026-04-29 11:10:31*
%MOMM*%
%LPD*%
G01*
G04 APERTURE LIST*
%ADD10C,0.050000*%
%ADD11C,0.150000*%
%ADD12C,0.100000*%
%ADD13C,0.120000*%
%ADD14C,0.200000*%
G04 APERTURE END LIST*
D10*
X188000000Y-183000000D02*
X229500000Y-183000000D01*
X229500000Y-183000000D02*
X229500000Y-134500000D01*
X182500000Y-183000000D02*
X182500000Y-134500000D01*
X188000000Y-134500000D02*
X188000000Y-183000000D01*
X182500000Y-134500000D02*
X141000000Y-134500000D01*
X141000000Y-134500000D02*
X141000000Y-183000000D01*
X229500000Y-134500000D02*
X188000000Y-134500000D01*
X141000000Y-183000000D02*
X182500000Y-183000000D01*
D11*
X152336666Y-152304819D02*
X152003333Y-151828628D01*
X151765238Y-152304819D02*
X151765238Y-151304819D01*
X151765238Y-151304819D02*
X152146190Y-151304819D01*
X152146190Y-151304819D02*
X152241428Y-151352438D01*
X152241428Y-151352438D02*
X152289047Y-151400057D01*
X152289047Y-151400057D02*
X152336666Y-151495295D01*
X152336666Y-151495295D02*
X152336666Y-151638152D01*
X152336666Y-151638152D02*
X152289047Y-151733390D01*
X152289047Y-151733390D02*
X152241428Y-151781009D01*
X152241428Y-151781009D02*
X152146190Y-151828628D01*
X152146190Y-151828628D02*
X151765238Y-151828628D01*
X152765238Y-151781009D02*
X153098571Y-151781009D01*
X153241428Y-152304819D02*
X152765238Y-152304819D01*
X152765238Y-152304819D02*
X152765238Y-151304819D01*
X152765238Y-151304819D02*
X153241428Y-151304819D01*
X154003333Y-151781009D02*
X153670000Y-151781009D01*
X153670000Y-152304819D02*
X153670000Y-151304819D01*
X153670000Y-151304819D02*
X154146190Y-151304819D01*
X154670000Y-151304819D02*
X154670000Y-151542914D01*
X154431905Y-151447676D02*
X154670000Y-151542914D01*
X154670000Y-151542914D02*
X154908095Y-151447676D01*
X154527143Y-151733390D02*
X154670000Y-151542914D01*
X154670000Y-151542914D02*
X154812857Y-151733390D01*
X155431905Y-151304819D02*
X155431905Y-151542914D01*
X155193810Y-151447676D02*
X155431905Y-151542914D01*
X155431905Y-151542914D02*
X155670000Y-151447676D01*
X155289048Y-151733390D02*
X155431905Y-151542914D01*
X155431905Y-151542914D02*
X155574762Y-151733390D01*
X273504819Y-174982094D02*
X272504819Y-174982094D01*
X272504819Y-174982094D02*
X272504819Y-174743999D01*
X272504819Y-174743999D02*
X272552438Y-174601142D01*
X272552438Y-174601142D02*
X272647676Y-174505904D01*
X272647676Y-174505904D02*
X272742914Y-174458285D01*
X272742914Y-174458285D02*
X272933390Y-174410666D01*
X272933390Y-174410666D02*
X273076247Y-174410666D01*
X273076247Y-174410666D02*
X273266723Y-174458285D01*
X273266723Y-174458285D02*
X273361961Y-174505904D01*
X273361961Y-174505904D02*
X273457200Y-174601142D01*
X273457200Y-174601142D02*
X273504819Y-174743999D01*
X273504819Y-174743999D02*
X273504819Y-174982094D01*
X272600057Y-174029713D02*
X272552438Y-173982094D01*
X272552438Y-173982094D02*
X272504819Y-173886856D01*
X272504819Y-173886856D02*
X272504819Y-173648761D01*
X272504819Y-173648761D02*
X272552438Y-173553523D01*
X272552438Y-173553523D02*
X272600057Y-173505904D01*
X272600057Y-173505904D02*
X272695295Y-173458285D01*
X272695295Y-173458285D02*
X272790533Y-173458285D01*
X272790533Y-173458285D02*
X272933390Y-173505904D01*
X272933390Y-173505904D02*
X273504819Y-174077332D01*
X273504819Y-174077332D02*
X273504819Y-173458285D01*
X290220819Y-185429094D02*
X289220819Y-185429094D01*
X289220819Y-185429094D02*
X289220819Y-185190999D01*
X289220819Y-185190999D02*
X289268438Y-185048142D01*
X289268438Y-185048142D02*
X289363676Y-184952904D01*
X289363676Y-184952904D02*
X289458914Y-184905285D01*
X289458914Y-184905285D02*
X289649390Y-184857666D01*
X289649390Y-184857666D02*
X289792247Y-184857666D01*
X289792247Y-184857666D02*
X289982723Y-184905285D01*
X289982723Y-184905285D02*
X290077961Y-184952904D01*
X290077961Y-184952904D02*
X290173200Y-185048142D01*
X290173200Y-185048142D02*
X290220819Y-185190999D01*
X290220819Y-185190999D02*
X290220819Y-185429094D01*
X290220819Y-183905285D02*
X290220819Y-184476713D01*
X290220819Y-184190999D02*
X289220819Y-184190999D01*
X289220819Y-184190999D02*
X289363676Y-184286237D01*
X289363676Y-184286237D02*
X289458914Y-184381475D01*
X289458914Y-184381475D02*
X289506533Y-184476713D01*
X277796666Y-180906009D02*
X277463333Y-180906009D01*
X277463333Y-181429819D02*
X277463333Y-180429819D01*
X277463333Y-180429819D02*
X277939523Y-180429819D01*
X278272857Y-180525057D02*
X278320476Y-180477438D01*
X278320476Y-180477438D02*
X278415714Y-180429819D01*
X278415714Y-180429819D02*
X278653809Y-180429819D01*
X278653809Y-180429819D02*
X278749047Y-180477438D01*
X278749047Y-180477438D02*
X278796666Y-180525057D01*
X278796666Y-180525057D02*
X278844285Y-180620295D01*
X278844285Y-180620295D02*
X278844285Y-180715533D01*
X278844285Y-180715533D02*
X278796666Y-180858390D01*
X278796666Y-180858390D02*
X278225238Y-181429819D01*
X278225238Y-181429819D02*
X278844285Y-181429819D01*
X285166666Y-162879819D02*
X285166666Y-163594104D01*
X285166666Y-163594104D02*
X285119047Y-163736961D01*
X285119047Y-163736961D02*
X285023809Y-163832200D01*
X285023809Y-163832200D02*
X284880952Y-163879819D01*
X284880952Y-163879819D02*
X284785714Y-163879819D01*
X286071428Y-163213152D02*
X286071428Y-163879819D01*
X285833333Y-162832200D02*
X285595238Y-163546485D01*
X285595238Y-163546485D02*
X286214285Y-163546485D01*
X213416666Y-192904819D02*
X213416666Y-193619104D01*
X213416666Y-193619104D02*
X213369047Y-193761961D01*
X213369047Y-193761961D02*
X213273809Y-193857200D01*
X213273809Y-193857200D02*
X213130952Y-193904819D01*
X213130952Y-193904819D02*
X213035714Y-193904819D01*
X214321428Y-192904819D02*
X214130952Y-192904819D01*
X214130952Y-192904819D02*
X214035714Y-192952438D01*
X214035714Y-192952438D02*
X213988095Y-193000057D01*
X213988095Y-193000057D02*
X213892857Y-193142914D01*
X213892857Y-193142914D02*
X213845238Y-193333390D01*
X213845238Y-193333390D02*
X213845238Y-193714342D01*
X213845238Y-193714342D02*
X213892857Y-193809580D01*
X213892857Y-193809580D02*
X213940476Y-193857200D01*
X213940476Y-193857200D02*
X214035714Y-193904819D01*
X214035714Y-193904819D02*
X214226190Y-193904819D01*
X214226190Y-193904819D02*
X214321428Y-193857200D01*
X214321428Y-193857200D02*
X214369047Y-193809580D01*
X214369047Y-193809580D02*
X214416666Y-193714342D01*
X214416666Y-193714342D02*
X214416666Y-193476247D01*
X214416666Y-193476247D02*
X214369047Y-193381009D01*
X214369047Y-193381009D02*
X214321428Y-193333390D01*
X214321428Y-193333390D02*
X214226190Y-193285771D01*
X214226190Y-193285771D02*
X214035714Y-193285771D01*
X214035714Y-193285771D02*
X213940476Y-193333390D01*
X213940476Y-193333390D02*
X213892857Y-193381009D01*
X213892857Y-193381009D02*
X213845238Y-193476247D01*
X152416666Y-122404819D02*
X152416666Y-123119104D01*
X152416666Y-123119104D02*
X152369047Y-123261961D01*
X152369047Y-123261961D02*
X152273809Y-123357200D01*
X152273809Y-123357200D02*
X152130952Y-123404819D01*
X152130952Y-123404819D02*
X152035714Y-123404819D01*
X153416666Y-123404819D02*
X152845238Y-123404819D01*
X153130952Y-123404819D02*
X153130952Y-122404819D01*
X153130952Y-122404819D02*
X153035714Y-122547676D01*
X153035714Y-122547676D02*
X152940476Y-122642914D01*
X152940476Y-122642914D02*
X152845238Y-122690533D01*
X297379819Y-124690476D02*
X298094104Y-124690476D01*
X298094104Y-124690476D02*
X298236961Y-124738095D01*
X298236961Y-124738095D02*
X298332200Y-124833333D01*
X298332200Y-124833333D02*
X298379819Y-124976190D01*
X298379819Y-124976190D02*
X298379819Y-125071428D01*
X298332200Y-124261904D02*
X298379819Y-124119047D01*
X298379819Y-124119047D02*
X298379819Y-123880952D01*
X298379819Y-123880952D02*
X298332200Y-123785714D01*
X298332200Y-123785714D02*
X298284580Y-123738095D01*
X298284580Y-123738095D02*
X298189342Y-123690476D01*
X298189342Y-123690476D02*
X298094104Y-123690476D01*
X298094104Y-123690476D02*
X297998866Y-123738095D01*
X297998866Y-123738095D02*
X297951247Y-123785714D01*
X297951247Y-123785714D02*
X297903628Y-123880952D01*
X297903628Y-123880952D02*
X297856009Y-124071428D01*
X297856009Y-124071428D02*
X297808390Y-124166666D01*
X297808390Y-124166666D02*
X297760771Y-124214285D01*
X297760771Y-124214285D02*
X297665533Y-124261904D01*
X297665533Y-124261904D02*
X297570295Y-124261904D01*
X297570295Y-124261904D02*
X297475057Y-124214285D01*
X297475057Y-124214285D02*
X297427438Y-124166666D01*
X297427438Y-124166666D02*
X297379819Y-124071428D01*
X297379819Y-124071428D02*
X297379819Y-123833333D01*
X297379819Y-123833333D02*
X297427438Y-123690476D01*
X297379819Y-123404761D02*
X297379819Y-122833333D01*
X298379819Y-123119047D02*
X297379819Y-123119047D01*
X298379819Y-121976190D02*
X298379819Y-122547618D01*
X298379819Y-122261904D02*
X297379819Y-122261904D01*
X297379819Y-122261904D02*
X297522676Y-122357142D01*
X297522676Y-122357142D02*
X297617914Y-122452380D01*
X297617914Y-122452380D02*
X297665533Y-122547618D01*
X240388095Y-173754819D02*
X240388095Y-174564342D01*
X240388095Y-174564342D02*
X240435714Y-174659580D01*
X240435714Y-174659580D02*
X240483333Y-174707200D01*
X240483333Y-174707200D02*
X240578571Y-174754819D01*
X240578571Y-174754819D02*
X240769047Y-174754819D01*
X240769047Y-174754819D02*
X240864285Y-174707200D01*
X240864285Y-174707200D02*
X240911904Y-174659580D01*
X240911904Y-174659580D02*
X240959523Y-174564342D01*
X240959523Y-174564342D02*
X240959523Y-173754819D01*
X241340476Y-173754819D02*
X241959523Y-173754819D01*
X241959523Y-173754819D02*
X241626190Y-174135771D01*
X241626190Y-174135771D02*
X241769047Y-174135771D01*
X241769047Y-174135771D02*
X241864285Y-174183390D01*
X241864285Y-174183390D02*
X241911904Y-174231009D01*
X241911904Y-174231009D02*
X241959523Y-174326247D01*
X241959523Y-174326247D02*
X241959523Y-174564342D01*
X241959523Y-174564342D02*
X241911904Y-174659580D01*
X241911904Y-174659580D02*
X241864285Y-174707200D01*
X241864285Y-174707200D02*
X241769047Y-174754819D01*
X241769047Y-174754819D02*
X241483333Y-174754819D01*
X241483333Y-174754819D02*
X241388095Y-174707200D01*
X241388095Y-174707200D02*
X241340476Y-174659580D01*
X251209580Y-180204166D02*
X251257200Y-180251785D01*
X251257200Y-180251785D02*
X251304819Y-180394642D01*
X251304819Y-180394642D02*
X251304819Y-180489880D01*
X251304819Y-180489880D02*
X251257200Y-180632737D01*
X251257200Y-180632737D02*
X251161961Y-180727975D01*
X251161961Y-180727975D02*
X251066723Y-180775594D01*
X251066723Y-180775594D02*
X250876247Y-180823213D01*
X250876247Y-180823213D02*
X250733390Y-180823213D01*
X250733390Y-180823213D02*
X250542914Y-180775594D01*
X250542914Y-180775594D02*
X250447676Y-180727975D01*
X250447676Y-180727975D02*
X250352438Y-180632737D01*
X250352438Y-180632737D02*
X250304819Y-180489880D01*
X250304819Y-180489880D02*
X250304819Y-180394642D01*
X250304819Y-180394642D02*
X250352438Y-180251785D01*
X250352438Y-180251785D02*
X250400057Y-180204166D01*
X250400057Y-179823213D02*
X250352438Y-179775594D01*
X250352438Y-179775594D02*
X250304819Y-179680356D01*
X250304819Y-179680356D02*
X250304819Y-179442261D01*
X250304819Y-179442261D02*
X250352438Y-179347023D01*
X250352438Y-179347023D02*
X250400057Y-179299404D01*
X250400057Y-179299404D02*
X250495295Y-179251785D01*
X250495295Y-179251785D02*
X250590533Y-179251785D01*
X250590533Y-179251785D02*
X250733390Y-179299404D01*
X250733390Y-179299404D02*
X251304819Y-179870832D01*
X251304819Y-179870832D02*
X251304819Y-179251785D01*
X254659523Y-191904819D02*
X254659523Y-192619104D01*
X254659523Y-192619104D02*
X254611904Y-192761961D01*
X254611904Y-192761961D02*
X254516666Y-192857200D01*
X254516666Y-192857200D02*
X254373809Y-192904819D01*
X254373809Y-192904819D02*
X254278571Y-192904819D01*
X255088095Y-192857200D02*
X255230952Y-192904819D01*
X255230952Y-192904819D02*
X255469047Y-192904819D01*
X255469047Y-192904819D02*
X255564285Y-192857200D01*
X255564285Y-192857200D02*
X255611904Y-192809580D01*
X255611904Y-192809580D02*
X255659523Y-192714342D01*
X255659523Y-192714342D02*
X255659523Y-192619104D01*
X255659523Y-192619104D02*
X255611904Y-192523866D01*
X255611904Y-192523866D02*
X255564285Y-192476247D01*
X255564285Y-192476247D02*
X255469047Y-192428628D01*
X255469047Y-192428628D02*
X255278571Y-192381009D01*
X255278571Y-192381009D02*
X255183333Y-192333390D01*
X255183333Y-192333390D02*
X255135714Y-192285771D01*
X255135714Y-192285771D02*
X255088095Y-192190533D01*
X255088095Y-192190533D02*
X255088095Y-192095295D01*
X255088095Y-192095295D02*
X255135714Y-192000057D01*
X255135714Y-192000057D02*
X255183333Y-191952438D01*
X255183333Y-191952438D02*
X255278571Y-191904819D01*
X255278571Y-191904819D02*
X255516666Y-191904819D01*
X255516666Y-191904819D02*
X255659523Y-191952438D01*
X255945238Y-191904819D02*
X256516666Y-191904819D01*
X256230952Y-192904819D02*
X256230952Y-191904819D01*
X257278571Y-191904819D02*
X257088095Y-191904819D01*
X257088095Y-191904819D02*
X256992857Y-191952438D01*
X256992857Y-191952438D02*
X256945238Y-192000057D01*
X256945238Y-192000057D02*
X256850000Y-192142914D01*
X256850000Y-192142914D02*
X256802381Y-192333390D01*
X256802381Y-192333390D02*
X256802381Y-192714342D01*
X256802381Y-192714342D02*
X256850000Y-192809580D01*
X256850000Y-192809580D02*
X256897619Y-192857200D01*
X256897619Y-192857200D02*
X256992857Y-192904819D01*
X256992857Y-192904819D02*
X257183333Y-192904819D01*
X257183333Y-192904819D02*
X257278571Y-192857200D01*
X257278571Y-192857200D02*
X257326190Y-192809580D01*
X257326190Y-192809580D02*
X257373809Y-192714342D01*
X257373809Y-192714342D02*
X257373809Y-192476247D01*
X257373809Y-192476247D02*
X257326190Y-192381009D01*
X257326190Y-192381009D02*
X257278571Y-192333390D01*
X257278571Y-192333390D02*
X257183333Y-192285771D01*
X257183333Y-192285771D02*
X256992857Y-192285771D01*
X256992857Y-192285771D02*
X256897619Y-192333390D01*
X256897619Y-192333390D02*
X256850000Y-192381009D01*
X256850000Y-192381009D02*
X256802381Y-192476247D01*
X278159523Y-191904819D02*
X278159523Y-192619104D01*
X278159523Y-192619104D02*
X278111904Y-192761961D01*
X278111904Y-192761961D02*
X278016666Y-192857200D01*
X278016666Y-192857200D02*
X277873809Y-192904819D01*
X277873809Y-192904819D02*
X277778571Y-192904819D01*
X278588095Y-192857200D02*
X278730952Y-192904819D01*
X278730952Y-192904819D02*
X278969047Y-192904819D01*
X278969047Y-192904819D02*
X279064285Y-192857200D01*
X279064285Y-192857200D02*
X279111904Y-192809580D01*
X279111904Y-192809580D02*
X279159523Y-192714342D01*
X279159523Y-192714342D02*
X279159523Y-192619104D01*
X279159523Y-192619104D02*
X279111904Y-192523866D01*
X279111904Y-192523866D02*
X279064285Y-192476247D01*
X279064285Y-192476247D02*
X278969047Y-192428628D01*
X278969047Y-192428628D02*
X278778571Y-192381009D01*
X278778571Y-192381009D02*
X278683333Y-192333390D01*
X278683333Y-192333390D02*
X278635714Y-192285771D01*
X278635714Y-192285771D02*
X278588095Y-192190533D01*
X278588095Y-192190533D02*
X278588095Y-192095295D01*
X278588095Y-192095295D02*
X278635714Y-192000057D01*
X278635714Y-192000057D02*
X278683333Y-191952438D01*
X278683333Y-191952438D02*
X278778571Y-191904819D01*
X278778571Y-191904819D02*
X279016666Y-191904819D01*
X279016666Y-191904819D02*
X279159523Y-191952438D01*
X279445238Y-191904819D02*
X280016666Y-191904819D01*
X279730952Y-192904819D02*
X279730952Y-191904819D01*
X280254762Y-191904819D02*
X280921428Y-191904819D01*
X280921428Y-191904819D02*
X280492857Y-192904819D01*
X278372819Y-177230666D02*
X277896628Y-177563999D01*
X278372819Y-177802094D02*
X277372819Y-177802094D01*
X277372819Y-177802094D02*
X277372819Y-177421142D01*
X277372819Y-177421142D02*
X277420438Y-177325904D01*
X277420438Y-177325904D02*
X277468057Y-177278285D01*
X277468057Y-177278285D02*
X277563295Y-177230666D01*
X277563295Y-177230666D02*
X277706152Y-177230666D01*
X277706152Y-177230666D02*
X277801390Y-177278285D01*
X277801390Y-177278285D02*
X277849009Y-177325904D01*
X277849009Y-177325904D02*
X277896628Y-177421142D01*
X277896628Y-177421142D02*
X277896628Y-177802094D01*
X278372819Y-176278285D02*
X278372819Y-176849713D01*
X278372819Y-176563999D02*
X277372819Y-176563999D01*
X277372819Y-176563999D02*
X277515676Y-176659237D01*
X277515676Y-176659237D02*
X277610914Y-176754475D01*
X277610914Y-176754475D02*
X277658533Y-176849713D01*
X231159523Y-191904819D02*
X231159523Y-192619104D01*
X231159523Y-192619104D02*
X231111904Y-192761961D01*
X231111904Y-192761961D02*
X231016666Y-192857200D01*
X231016666Y-192857200D02*
X230873809Y-192904819D01*
X230873809Y-192904819D02*
X230778571Y-192904819D01*
X231588095Y-192857200D02*
X231730952Y-192904819D01*
X231730952Y-192904819D02*
X231969047Y-192904819D01*
X231969047Y-192904819D02*
X232064285Y-192857200D01*
X232064285Y-192857200D02*
X232111904Y-192809580D01*
X232111904Y-192809580D02*
X232159523Y-192714342D01*
X232159523Y-192714342D02*
X232159523Y-192619104D01*
X232159523Y-192619104D02*
X232111904Y-192523866D01*
X232111904Y-192523866D02*
X232064285Y-192476247D01*
X232064285Y-192476247D02*
X231969047Y-192428628D01*
X231969047Y-192428628D02*
X231778571Y-192381009D01*
X231778571Y-192381009D02*
X231683333Y-192333390D01*
X231683333Y-192333390D02*
X231635714Y-192285771D01*
X231635714Y-192285771D02*
X231588095Y-192190533D01*
X231588095Y-192190533D02*
X231588095Y-192095295D01*
X231588095Y-192095295D02*
X231635714Y-192000057D01*
X231635714Y-192000057D02*
X231683333Y-191952438D01*
X231683333Y-191952438D02*
X231778571Y-191904819D01*
X231778571Y-191904819D02*
X232016666Y-191904819D01*
X232016666Y-191904819D02*
X232159523Y-191952438D01*
X232445238Y-191904819D02*
X233016666Y-191904819D01*
X232730952Y-192904819D02*
X232730952Y-191904819D01*
X233826190Y-191904819D02*
X233350000Y-191904819D01*
X233350000Y-191904819D02*
X233302381Y-192381009D01*
X233302381Y-192381009D02*
X233350000Y-192333390D01*
X233350000Y-192333390D02*
X233445238Y-192285771D01*
X233445238Y-192285771D02*
X233683333Y-192285771D01*
X233683333Y-192285771D02*
X233778571Y-192333390D01*
X233778571Y-192333390D02*
X233826190Y-192381009D01*
X233826190Y-192381009D02*
X233873809Y-192476247D01*
X233873809Y-192476247D02*
X233873809Y-192714342D01*
X233873809Y-192714342D02*
X233826190Y-192809580D01*
X233826190Y-192809580D02*
X233778571Y-192857200D01*
X233778571Y-192857200D02*
X233683333Y-192904819D01*
X233683333Y-192904819D02*
X233445238Y-192904819D01*
X233445238Y-192904819D02*
X233350000Y-192857200D01*
X233350000Y-192857200D02*
X233302381Y-192809580D01*
X212916666Y-121404819D02*
X212916666Y-122119104D01*
X212916666Y-122119104D02*
X212869047Y-122261961D01*
X212869047Y-122261961D02*
X212773809Y-122357200D01*
X212773809Y-122357200D02*
X212630952Y-122404819D01*
X212630952Y-122404819D02*
X212535714Y-122404819D01*
X213297619Y-121404819D02*
X213916666Y-121404819D01*
X213916666Y-121404819D02*
X213583333Y-121785771D01*
X213583333Y-121785771D02*
X213726190Y-121785771D01*
X213726190Y-121785771D02*
X213821428Y-121833390D01*
X213821428Y-121833390D02*
X213869047Y-121881009D01*
X213869047Y-121881009D02*
X213916666Y-121976247D01*
X213916666Y-121976247D02*
X213916666Y-122214342D01*
X213916666Y-122214342D02*
X213869047Y-122309580D01*
X213869047Y-122309580D02*
X213821428Y-122357200D01*
X213821428Y-122357200D02*
X213726190Y-122404819D01*
X213726190Y-122404819D02*
X213440476Y-122404819D01*
X213440476Y-122404819D02*
X213345238Y-122357200D01*
X213345238Y-122357200D02*
X213297619Y-122309580D01*
X287559523Y-113404819D02*
X287559523Y-114119104D01*
X287559523Y-114119104D02*
X287511904Y-114261961D01*
X287511904Y-114261961D02*
X287416666Y-114357200D01*
X287416666Y-114357200D02*
X287273809Y-114404819D01*
X287273809Y-114404819D02*
X287178571Y-114404819D01*
X287988095Y-114357200D02*
X288130952Y-114404819D01*
X288130952Y-114404819D02*
X288369047Y-114404819D01*
X288369047Y-114404819D02*
X288464285Y-114357200D01*
X288464285Y-114357200D02*
X288511904Y-114309580D01*
X288511904Y-114309580D02*
X288559523Y-114214342D01*
X288559523Y-114214342D02*
X288559523Y-114119104D01*
X288559523Y-114119104D02*
X288511904Y-114023866D01*
X288511904Y-114023866D02*
X288464285Y-113976247D01*
X288464285Y-113976247D02*
X288369047Y-113928628D01*
X288369047Y-113928628D02*
X288178571Y-113881009D01*
X288178571Y-113881009D02*
X288083333Y-113833390D01*
X288083333Y-113833390D02*
X288035714Y-113785771D01*
X288035714Y-113785771D02*
X287988095Y-113690533D01*
X287988095Y-113690533D02*
X287988095Y-113595295D01*
X287988095Y-113595295D02*
X288035714Y-113500057D01*
X288035714Y-113500057D02*
X288083333Y-113452438D01*
X288083333Y-113452438D02*
X288178571Y-113404819D01*
X288178571Y-113404819D02*
X288416666Y-113404819D01*
X288416666Y-113404819D02*
X288559523Y-113452438D01*
X288845238Y-113404819D02*
X289416666Y-113404819D01*
X289130952Y-114404819D02*
X289130952Y-113404819D01*
X289797619Y-114404819D02*
X289988095Y-114404819D01*
X289988095Y-114404819D02*
X290083333Y-114357200D01*
X290083333Y-114357200D02*
X290130952Y-114309580D01*
X290130952Y-114309580D02*
X290226190Y-114166723D01*
X290226190Y-114166723D02*
X290273809Y-113976247D01*
X290273809Y-113976247D02*
X290273809Y-113595295D01*
X290273809Y-113595295D02*
X290226190Y-113500057D01*
X290226190Y-113500057D02*
X290178571Y-113452438D01*
X290178571Y-113452438D02*
X290083333Y-113404819D01*
X290083333Y-113404819D02*
X289892857Y-113404819D01*
X289892857Y-113404819D02*
X289797619Y-113452438D01*
X289797619Y-113452438D02*
X289750000Y-113500057D01*
X289750000Y-113500057D02*
X289702381Y-113595295D01*
X289702381Y-113595295D02*
X289702381Y-113833390D01*
X289702381Y-113833390D02*
X289750000Y-113928628D01*
X289750000Y-113928628D02*
X289797619Y-113976247D01*
X289797619Y-113976247D02*
X289892857Y-114023866D01*
X289892857Y-114023866D02*
X290083333Y-114023866D01*
X290083333Y-114023866D02*
X290178571Y-113976247D01*
X290178571Y-113976247D02*
X290226190Y-113928628D01*
X290226190Y-113928628D02*
X290273809Y-113833390D01*
X231509580Y-178204166D02*
X231557200Y-178251785D01*
X231557200Y-178251785D02*
X231604819Y-178394642D01*
X231604819Y-178394642D02*
X231604819Y-178489880D01*
X231604819Y-178489880D02*
X231557200Y-178632737D01*
X231557200Y-178632737D02*
X231461961Y-178727975D01*
X231461961Y-178727975D02*
X231366723Y-178775594D01*
X231366723Y-178775594D02*
X231176247Y-178823213D01*
X231176247Y-178823213D02*
X231033390Y-178823213D01*
X231033390Y-178823213D02*
X230842914Y-178775594D01*
X230842914Y-178775594D02*
X230747676Y-178727975D01*
X230747676Y-178727975D02*
X230652438Y-178632737D01*
X230652438Y-178632737D02*
X230604819Y-178489880D01*
X230604819Y-178489880D02*
X230604819Y-178394642D01*
X230604819Y-178394642D02*
X230652438Y-178251785D01*
X230652438Y-178251785D02*
X230700057Y-178204166D01*
X231604819Y-177251785D02*
X231604819Y-177823213D01*
X231604819Y-177537499D02*
X230604819Y-177537499D01*
X230604819Y-177537499D02*
X230747676Y-177632737D01*
X230747676Y-177632737D02*
X230842914Y-177727975D01*
X230842914Y-177727975D02*
X230890533Y-177823213D01*
X169718094Y-161280180D02*
X169718094Y-162280180D01*
X169718094Y-162280180D02*
X169479999Y-162280180D01*
X169479999Y-162280180D02*
X169337142Y-162232561D01*
X169337142Y-162232561D02*
X169241904Y-162137323D01*
X169241904Y-162137323D02*
X169194285Y-162042085D01*
X169194285Y-162042085D02*
X169146666Y-161851609D01*
X169146666Y-161851609D02*
X169146666Y-161708752D01*
X169146666Y-161708752D02*
X169194285Y-161518276D01*
X169194285Y-161518276D02*
X169241904Y-161423038D01*
X169241904Y-161423038D02*
X169337142Y-161327800D01*
X169337142Y-161327800D02*
X169479999Y-161280180D01*
X169479999Y-161280180D02*
X169718094Y-161280180D01*
X168527618Y-162280180D02*
X168432380Y-162280180D01*
X168432380Y-162280180D02*
X168337142Y-162232561D01*
X168337142Y-162232561D02*
X168289523Y-162184942D01*
X168289523Y-162184942D02*
X168241904Y-162089704D01*
X168241904Y-162089704D02*
X168194285Y-161899228D01*
X168194285Y-161899228D02*
X168194285Y-161661133D01*
X168194285Y-161661133D02*
X168241904Y-161470657D01*
X168241904Y-161470657D02*
X168289523Y-161375419D01*
X168289523Y-161375419D02*
X168337142Y-161327800D01*
X168337142Y-161327800D02*
X168432380Y-161280180D01*
X168432380Y-161280180D02*
X168527618Y-161280180D01*
X168527618Y-161280180D02*
X168622856Y-161327800D01*
X168622856Y-161327800D02*
X168670475Y-161375419D01*
X168670475Y-161375419D02*
X168718094Y-161470657D01*
X168718094Y-161470657D02*
X168765713Y-161661133D01*
X168765713Y-161661133D02*
X168765713Y-161899228D01*
X168765713Y-161899228D02*
X168718094Y-162089704D01*
X168718094Y-162089704D02*
X168670475Y-162184942D01*
X168670475Y-162184942D02*
X168622856Y-162232561D01*
X168622856Y-162232561D02*
X168527618Y-162280180D01*
X169996000Y-145203580D02*
X170043619Y-145251200D01*
X170043619Y-145251200D02*
X169996000Y-145298819D01*
X169996000Y-145298819D02*
X169948381Y-145251200D01*
X169948381Y-145251200D02*
X169996000Y-145203580D01*
X169996000Y-145203580D02*
X169996000Y-145298819D01*
X279059523Y-161504819D02*
X279059523Y-162219104D01*
X279059523Y-162219104D02*
X279011904Y-162361961D01*
X279011904Y-162361961D02*
X278916666Y-162457200D01*
X278916666Y-162457200D02*
X278773809Y-162504819D01*
X278773809Y-162504819D02*
X278678571Y-162504819D01*
X279488095Y-162457200D02*
X279630952Y-162504819D01*
X279630952Y-162504819D02*
X279869047Y-162504819D01*
X279869047Y-162504819D02*
X279964285Y-162457200D01*
X279964285Y-162457200D02*
X280011904Y-162409580D01*
X280011904Y-162409580D02*
X280059523Y-162314342D01*
X280059523Y-162314342D02*
X280059523Y-162219104D01*
X280059523Y-162219104D02*
X280011904Y-162123866D01*
X280011904Y-162123866D02*
X279964285Y-162076247D01*
X279964285Y-162076247D02*
X279869047Y-162028628D01*
X279869047Y-162028628D02*
X279678571Y-161981009D01*
X279678571Y-161981009D02*
X279583333Y-161933390D01*
X279583333Y-161933390D02*
X279535714Y-161885771D01*
X279535714Y-161885771D02*
X279488095Y-161790533D01*
X279488095Y-161790533D02*
X279488095Y-161695295D01*
X279488095Y-161695295D02*
X279535714Y-161600057D01*
X279535714Y-161600057D02*
X279583333Y-161552438D01*
X279583333Y-161552438D02*
X279678571Y-161504819D01*
X279678571Y-161504819D02*
X279916666Y-161504819D01*
X279916666Y-161504819D02*
X280059523Y-161552438D01*
X280345238Y-161504819D02*
X280916666Y-161504819D01*
X280630952Y-162504819D02*
X280630952Y-161504819D01*
X281678571Y-161838152D02*
X281678571Y-162504819D01*
X281440476Y-161457200D02*
X281202381Y-162171485D01*
X281202381Y-162171485D02*
X281821428Y-162171485D01*
X143583333Y-192904819D02*
X143583333Y-193619104D01*
X143583333Y-193619104D02*
X143535714Y-193761961D01*
X143535714Y-193761961D02*
X143440476Y-193857200D01*
X143440476Y-193857200D02*
X143297619Y-193904819D01*
X143297619Y-193904819D02*
X143202381Y-193904819D01*
X144011905Y-193857200D02*
X144154762Y-193904819D01*
X144154762Y-193904819D02*
X144392857Y-193904819D01*
X144392857Y-193904819D02*
X144488095Y-193857200D01*
X144488095Y-193857200D02*
X144535714Y-193809580D01*
X144535714Y-193809580D02*
X144583333Y-193714342D01*
X144583333Y-193714342D02*
X144583333Y-193619104D01*
X144583333Y-193619104D02*
X144535714Y-193523866D01*
X144535714Y-193523866D02*
X144488095Y-193476247D01*
X144488095Y-193476247D02*
X144392857Y-193428628D01*
X144392857Y-193428628D02*
X144202381Y-193381009D01*
X144202381Y-193381009D02*
X144107143Y-193333390D01*
X144107143Y-193333390D02*
X144059524Y-193285771D01*
X144059524Y-193285771D02*
X144011905Y-193190533D01*
X144011905Y-193190533D02*
X144011905Y-193095295D01*
X144011905Y-193095295D02*
X144059524Y-193000057D01*
X144059524Y-193000057D02*
X144107143Y-192952438D01*
X144107143Y-192952438D02*
X144202381Y-192904819D01*
X144202381Y-192904819D02*
X144440476Y-192904819D01*
X144440476Y-192904819D02*
X144583333Y-192952438D01*
X144869048Y-192904819D02*
X145440476Y-192904819D01*
X145154762Y-193904819D02*
X145154762Y-192904819D01*
X146297619Y-193904819D02*
X145726191Y-193904819D01*
X146011905Y-193904819D02*
X146011905Y-192904819D01*
X146011905Y-192904819D02*
X145916667Y-193047676D01*
X145916667Y-193047676D02*
X145821429Y-193142914D01*
X145821429Y-193142914D02*
X145726191Y-193190533D01*
X146916667Y-192904819D02*
X147011905Y-192904819D01*
X147011905Y-192904819D02*
X147107143Y-192952438D01*
X147107143Y-192952438D02*
X147154762Y-193000057D01*
X147154762Y-193000057D02*
X147202381Y-193095295D01*
X147202381Y-193095295D02*
X147250000Y-193285771D01*
X147250000Y-193285771D02*
X147250000Y-193523866D01*
X147250000Y-193523866D02*
X147202381Y-193714342D01*
X147202381Y-193714342D02*
X147154762Y-193809580D01*
X147154762Y-193809580D02*
X147107143Y-193857200D01*
X147107143Y-193857200D02*
X147011905Y-193904819D01*
X147011905Y-193904819D02*
X146916667Y-193904819D01*
X146916667Y-193904819D02*
X146821429Y-193857200D01*
X146821429Y-193857200D02*
X146773810Y-193809580D01*
X146773810Y-193809580D02*
X146726191Y-193714342D01*
X146726191Y-193714342D02*
X146678572Y-193523866D01*
X146678572Y-193523866D02*
X146678572Y-193285771D01*
X146678572Y-193285771D02*
X146726191Y-193095295D01*
X146726191Y-193095295D02*
X146773810Y-193000057D01*
X146773810Y-193000057D02*
X146821429Y-192952438D01*
X146821429Y-192952438D02*
X146916667Y-192904819D01*
X267309523Y-113404819D02*
X267309523Y-114119104D01*
X267309523Y-114119104D02*
X267261904Y-114261961D01*
X267261904Y-114261961D02*
X267166666Y-114357200D01*
X267166666Y-114357200D02*
X267023809Y-114404819D01*
X267023809Y-114404819D02*
X266928571Y-114404819D01*
X267738095Y-114357200D02*
X267880952Y-114404819D01*
X267880952Y-114404819D02*
X268119047Y-114404819D01*
X268119047Y-114404819D02*
X268214285Y-114357200D01*
X268214285Y-114357200D02*
X268261904Y-114309580D01*
X268261904Y-114309580D02*
X268309523Y-114214342D01*
X268309523Y-114214342D02*
X268309523Y-114119104D01*
X268309523Y-114119104D02*
X268261904Y-114023866D01*
X268261904Y-114023866D02*
X268214285Y-113976247D01*
X268214285Y-113976247D02*
X268119047Y-113928628D01*
X268119047Y-113928628D02*
X267928571Y-113881009D01*
X267928571Y-113881009D02*
X267833333Y-113833390D01*
X267833333Y-113833390D02*
X267785714Y-113785771D01*
X267785714Y-113785771D02*
X267738095Y-113690533D01*
X267738095Y-113690533D02*
X267738095Y-113595295D01*
X267738095Y-113595295D02*
X267785714Y-113500057D01*
X267785714Y-113500057D02*
X267833333Y-113452438D01*
X267833333Y-113452438D02*
X267928571Y-113404819D01*
X267928571Y-113404819D02*
X268166666Y-113404819D01*
X268166666Y-113404819D02*
X268309523Y-113452438D01*
X268595238Y-113404819D02*
X269166666Y-113404819D01*
X268880952Y-114404819D02*
X268880952Y-113404819D01*
X269642857Y-113833390D02*
X269547619Y-113785771D01*
X269547619Y-113785771D02*
X269500000Y-113738152D01*
X269500000Y-113738152D02*
X269452381Y-113642914D01*
X269452381Y-113642914D02*
X269452381Y-113595295D01*
X269452381Y-113595295D02*
X269500000Y-113500057D01*
X269500000Y-113500057D02*
X269547619Y-113452438D01*
X269547619Y-113452438D02*
X269642857Y-113404819D01*
X269642857Y-113404819D02*
X269833333Y-113404819D01*
X269833333Y-113404819D02*
X269928571Y-113452438D01*
X269928571Y-113452438D02*
X269976190Y-113500057D01*
X269976190Y-113500057D02*
X270023809Y-113595295D01*
X270023809Y-113595295D02*
X270023809Y-113642914D01*
X270023809Y-113642914D02*
X269976190Y-113738152D01*
X269976190Y-113738152D02*
X269928571Y-113785771D01*
X269928571Y-113785771D02*
X269833333Y-113833390D01*
X269833333Y-113833390D02*
X269642857Y-113833390D01*
X269642857Y-113833390D02*
X269547619Y-113881009D01*
X269547619Y-113881009D02*
X269500000Y-113928628D01*
X269500000Y-113928628D02*
X269452381Y-114023866D01*
X269452381Y-114023866D02*
X269452381Y-114214342D01*
X269452381Y-114214342D02*
X269500000Y-114309580D01*
X269500000Y-114309580D02*
X269547619Y-114357200D01*
X269547619Y-114357200D02*
X269642857Y-114404819D01*
X269642857Y-114404819D02*
X269833333Y-114404819D01*
X269833333Y-114404819D02*
X269928571Y-114357200D01*
X269928571Y-114357200D02*
X269976190Y-114309580D01*
X269976190Y-114309580D02*
X270023809Y-114214342D01*
X270023809Y-114214342D02*
X270023809Y-114023866D01*
X270023809Y-114023866D02*
X269976190Y-113928628D01*
X269976190Y-113928628D02*
X269928571Y-113881009D01*
X269928571Y-113881009D02*
X269833333Y-113833390D01*
X290904819Y-189940476D02*
X291619104Y-189940476D01*
X291619104Y-189940476D02*
X291761961Y-189988095D01*
X291761961Y-189988095D02*
X291857200Y-190083333D01*
X291857200Y-190083333D02*
X291904819Y-190226190D01*
X291904819Y-190226190D02*
X291904819Y-190321428D01*
X291857200Y-189511904D02*
X291904819Y-189369047D01*
X291904819Y-189369047D02*
X291904819Y-189130952D01*
X291904819Y-189130952D02*
X291857200Y-189035714D01*
X291857200Y-189035714D02*
X291809580Y-188988095D01*
X291809580Y-188988095D02*
X291714342Y-188940476D01*
X291714342Y-188940476D02*
X291619104Y-188940476D01*
X291619104Y-188940476D02*
X291523866Y-188988095D01*
X291523866Y-188988095D02*
X291476247Y-189035714D01*
X291476247Y-189035714D02*
X291428628Y-189130952D01*
X291428628Y-189130952D02*
X291381009Y-189321428D01*
X291381009Y-189321428D02*
X291333390Y-189416666D01*
X291333390Y-189416666D02*
X291285771Y-189464285D01*
X291285771Y-189464285D02*
X291190533Y-189511904D01*
X291190533Y-189511904D02*
X291095295Y-189511904D01*
X291095295Y-189511904D02*
X291000057Y-189464285D01*
X291000057Y-189464285D02*
X290952438Y-189416666D01*
X290952438Y-189416666D02*
X290904819Y-189321428D01*
X290904819Y-189321428D02*
X290904819Y-189083333D01*
X290904819Y-189083333D02*
X290952438Y-188940476D01*
X290904819Y-188654761D02*
X290904819Y-188083333D01*
X291904819Y-188369047D02*
X290904819Y-188369047D01*
X290904819Y-187845237D02*
X290904819Y-187226190D01*
X290904819Y-187226190D02*
X291285771Y-187559523D01*
X291285771Y-187559523D02*
X291285771Y-187416666D01*
X291285771Y-187416666D02*
X291333390Y-187321428D01*
X291333390Y-187321428D02*
X291381009Y-187273809D01*
X291381009Y-187273809D02*
X291476247Y-187226190D01*
X291476247Y-187226190D02*
X291714342Y-187226190D01*
X291714342Y-187226190D02*
X291809580Y-187273809D01*
X291809580Y-187273809D02*
X291857200Y-187321428D01*
X291857200Y-187321428D02*
X291904819Y-187416666D01*
X291904819Y-187416666D02*
X291904819Y-187702380D01*
X291904819Y-187702380D02*
X291857200Y-187797618D01*
X291857200Y-187797618D02*
X291809580Y-187845237D01*
X196583333Y-192904819D02*
X196583333Y-193619104D01*
X196583333Y-193619104D02*
X196535714Y-193761961D01*
X196535714Y-193761961D02*
X196440476Y-193857200D01*
X196440476Y-193857200D02*
X196297619Y-193904819D01*
X196297619Y-193904819D02*
X196202381Y-193904819D01*
X197011905Y-193857200D02*
X197154762Y-193904819D01*
X197154762Y-193904819D02*
X197392857Y-193904819D01*
X197392857Y-193904819D02*
X197488095Y-193857200D01*
X197488095Y-193857200D02*
X197535714Y-193809580D01*
X197535714Y-193809580D02*
X197583333Y-193714342D01*
X197583333Y-193714342D02*
X197583333Y-193619104D01*
X197583333Y-193619104D02*
X197535714Y-193523866D01*
X197535714Y-193523866D02*
X197488095Y-193476247D01*
X197488095Y-193476247D02*
X197392857Y-193428628D01*
X197392857Y-193428628D02*
X197202381Y-193381009D01*
X197202381Y-193381009D02*
X197107143Y-193333390D01*
X197107143Y-193333390D02*
X197059524Y-193285771D01*
X197059524Y-193285771D02*
X197011905Y-193190533D01*
X197011905Y-193190533D02*
X197011905Y-193095295D01*
X197011905Y-193095295D02*
X197059524Y-193000057D01*
X197059524Y-193000057D02*
X197107143Y-192952438D01*
X197107143Y-192952438D02*
X197202381Y-192904819D01*
X197202381Y-192904819D02*
X197440476Y-192904819D01*
X197440476Y-192904819D02*
X197583333Y-192952438D01*
X197869048Y-192904819D02*
X198440476Y-192904819D01*
X198154762Y-193904819D02*
X198154762Y-192904819D01*
X199297619Y-193904819D02*
X198726191Y-193904819D01*
X199011905Y-193904819D02*
X199011905Y-192904819D01*
X199011905Y-192904819D02*
X198916667Y-193047676D01*
X198916667Y-193047676D02*
X198821429Y-193142914D01*
X198821429Y-193142914D02*
X198726191Y-193190533D01*
X200250000Y-193904819D02*
X199678572Y-193904819D01*
X199964286Y-193904819D02*
X199964286Y-192904819D01*
X199964286Y-192904819D02*
X199869048Y-193047676D01*
X199869048Y-193047676D02*
X199773810Y-193142914D01*
X199773810Y-193142914D02*
X199678572Y-193190533D01*
X162916666Y-192904819D02*
X162916666Y-193619104D01*
X162916666Y-193619104D02*
X162869047Y-193761961D01*
X162869047Y-193761961D02*
X162773809Y-193857200D01*
X162773809Y-193857200D02*
X162630952Y-193904819D01*
X162630952Y-193904819D02*
X162535714Y-193904819D01*
X163297619Y-192904819D02*
X163964285Y-192904819D01*
X163964285Y-192904819D02*
X163535714Y-193904819D01*
X267254819Y-182433333D02*
X267969104Y-182433333D01*
X267969104Y-182433333D02*
X268111961Y-182480952D01*
X268111961Y-182480952D02*
X268207200Y-182576190D01*
X268207200Y-182576190D02*
X268254819Y-182719047D01*
X268254819Y-182719047D02*
X268254819Y-182814285D01*
X267683390Y-181814285D02*
X267635771Y-181909523D01*
X267635771Y-181909523D02*
X267588152Y-181957142D01*
X267588152Y-181957142D02*
X267492914Y-182004761D01*
X267492914Y-182004761D02*
X267445295Y-182004761D01*
X267445295Y-182004761D02*
X267350057Y-181957142D01*
X267350057Y-181957142D02*
X267302438Y-181909523D01*
X267302438Y-181909523D02*
X267254819Y-181814285D01*
X267254819Y-181814285D02*
X267254819Y-181623809D01*
X267254819Y-181623809D02*
X267302438Y-181528571D01*
X267302438Y-181528571D02*
X267350057Y-181480952D01*
X267350057Y-181480952D02*
X267445295Y-181433333D01*
X267445295Y-181433333D02*
X267492914Y-181433333D01*
X267492914Y-181433333D02*
X267588152Y-181480952D01*
X267588152Y-181480952D02*
X267635771Y-181528571D01*
X267635771Y-181528571D02*
X267683390Y-181623809D01*
X267683390Y-181623809D02*
X267683390Y-181814285D01*
X267683390Y-181814285D02*
X267731009Y-181909523D01*
X267731009Y-181909523D02*
X267778628Y-181957142D01*
X267778628Y-181957142D02*
X267873866Y-182004761D01*
X267873866Y-182004761D02*
X268064342Y-182004761D01*
X268064342Y-182004761D02*
X268159580Y-181957142D01*
X268159580Y-181957142D02*
X268207200Y-181909523D01*
X268207200Y-181909523D02*
X268254819Y-181814285D01*
X268254819Y-181814285D02*
X268254819Y-181623809D01*
X268254819Y-181623809D02*
X268207200Y-181528571D01*
X268207200Y-181528571D02*
X268159580Y-181480952D01*
X268159580Y-181480952D02*
X268064342Y-181433333D01*
X268064342Y-181433333D02*
X267873866Y-181433333D01*
X267873866Y-181433333D02*
X267778628Y-181480952D01*
X267778628Y-181480952D02*
X267731009Y-181528571D01*
X267731009Y-181528571D02*
X267683390Y-181623809D01*
D12*
X266318904Y-139861580D02*
X266318904Y-139052057D01*
X266318904Y-139052057D02*
X266271285Y-138956819D01*
X266271285Y-138956819D02*
X266223666Y-138909200D01*
X266223666Y-138909200D02*
X266128428Y-138861580D01*
X266128428Y-138861580D02*
X265937952Y-138861580D01*
X265937952Y-138861580D02*
X265842714Y-138909200D01*
X265842714Y-138909200D02*
X265795095Y-138956819D01*
X265795095Y-138956819D02*
X265747476Y-139052057D01*
X265747476Y-139052057D02*
X265747476Y-139861580D01*
X265318904Y-139766342D02*
X265271285Y-139813961D01*
X265271285Y-139813961D02*
X265176047Y-139861580D01*
X265176047Y-139861580D02*
X264937952Y-139861580D01*
X264937952Y-139861580D02*
X264842714Y-139813961D01*
X264842714Y-139813961D02*
X264795095Y-139766342D01*
X264795095Y-139766342D02*
X264747476Y-139671104D01*
X264747476Y-139671104D02*
X264747476Y-139575866D01*
X264747476Y-139575866D02*
X264795095Y-139433009D01*
X264795095Y-139433009D02*
X265366523Y-138861580D01*
X265366523Y-138861580D02*
X264747476Y-138861580D01*
D11*
X257237200Y-164980839D02*
X257284819Y-164837982D01*
X257284819Y-164837982D02*
X257284819Y-164599887D01*
X257284819Y-164599887D02*
X257237200Y-164504649D01*
X257237200Y-164504649D02*
X257189580Y-164457030D01*
X257189580Y-164457030D02*
X257094342Y-164409411D01*
X257094342Y-164409411D02*
X256999104Y-164409411D01*
X256999104Y-164409411D02*
X256903866Y-164457030D01*
X256903866Y-164457030D02*
X256856247Y-164504649D01*
X256856247Y-164504649D02*
X256808628Y-164599887D01*
X256808628Y-164599887D02*
X256761009Y-164790363D01*
X256761009Y-164790363D02*
X256713390Y-164885601D01*
X256713390Y-164885601D02*
X256665771Y-164933220D01*
X256665771Y-164933220D02*
X256570533Y-164980839D01*
X256570533Y-164980839D02*
X256475295Y-164980839D01*
X256475295Y-164980839D02*
X256380057Y-164933220D01*
X256380057Y-164933220D02*
X256332438Y-164885601D01*
X256332438Y-164885601D02*
X256284819Y-164790363D01*
X256284819Y-164790363D02*
X256284819Y-164552268D01*
X256284819Y-164552268D02*
X256332438Y-164409411D01*
X257189580Y-163409411D02*
X257237200Y-163457030D01*
X257237200Y-163457030D02*
X257284819Y-163599887D01*
X257284819Y-163599887D02*
X257284819Y-163695125D01*
X257284819Y-163695125D02*
X257237200Y-163837982D01*
X257237200Y-163837982D02*
X257141961Y-163933220D01*
X257141961Y-163933220D02*
X257046723Y-163980839D01*
X257046723Y-163980839D02*
X256856247Y-164028458D01*
X256856247Y-164028458D02*
X256713390Y-164028458D01*
X256713390Y-164028458D02*
X256522914Y-163980839D01*
X256522914Y-163980839D02*
X256427676Y-163933220D01*
X256427676Y-163933220D02*
X256332438Y-163837982D01*
X256332438Y-163837982D02*
X256284819Y-163695125D01*
X256284819Y-163695125D02*
X256284819Y-163599887D01*
X256284819Y-163599887D02*
X256332438Y-163457030D01*
X256332438Y-163457030D02*
X256380057Y-163409411D01*
X257284819Y-162980839D02*
X256284819Y-162980839D01*
X257284819Y-162409411D02*
X256713390Y-162837982D01*
X256284819Y-162409411D02*
X256856247Y-162980839D01*
X254363866Y-159996077D02*
X254316247Y-159948458D01*
X254316247Y-159948458D02*
X254268628Y-159853220D01*
X254268628Y-159853220D02*
X254363866Y-159662744D01*
X254363866Y-159662744D02*
X254316247Y-159567506D01*
X254316247Y-159567506D02*
X254268628Y-159519887D01*
X254649580Y-158567506D02*
X254697200Y-158615125D01*
X254697200Y-158615125D02*
X254744819Y-158757982D01*
X254744819Y-158757982D02*
X254744819Y-158853220D01*
X254744819Y-158853220D02*
X254697200Y-158996077D01*
X254697200Y-158996077D02*
X254601961Y-159091315D01*
X254601961Y-159091315D02*
X254506723Y-159138934D01*
X254506723Y-159138934D02*
X254316247Y-159186553D01*
X254316247Y-159186553D02*
X254173390Y-159186553D01*
X254173390Y-159186553D02*
X253982914Y-159138934D01*
X253982914Y-159138934D02*
X253887676Y-159091315D01*
X253887676Y-159091315D02*
X253792438Y-158996077D01*
X253792438Y-158996077D02*
X253744819Y-158853220D01*
X253744819Y-158853220D02*
X253744819Y-158757982D01*
X253744819Y-158757982D02*
X253792438Y-158615125D01*
X253792438Y-158615125D02*
X253840057Y-158567506D01*
X254697200Y-158186553D02*
X254744819Y-158043696D01*
X254744819Y-158043696D02*
X254744819Y-157805601D01*
X254744819Y-157805601D02*
X254697200Y-157710363D01*
X254697200Y-157710363D02*
X254649580Y-157662744D01*
X254649580Y-157662744D02*
X254554342Y-157615125D01*
X254554342Y-157615125D02*
X254459104Y-157615125D01*
X254459104Y-157615125D02*
X254363866Y-157662744D01*
X254363866Y-157662744D02*
X254316247Y-157710363D01*
X254316247Y-157710363D02*
X254268628Y-157805601D01*
X254268628Y-157805601D02*
X254221009Y-157996077D01*
X254221009Y-157996077D02*
X254173390Y-158091315D01*
X254173390Y-158091315D02*
X254125771Y-158138934D01*
X254125771Y-158138934D02*
X254030533Y-158186553D01*
X254030533Y-158186553D02*
X253935295Y-158186553D01*
X253935295Y-158186553D02*
X253840057Y-158138934D01*
X253840057Y-158138934D02*
X253792438Y-158091315D01*
X253792438Y-158091315D02*
X253744819Y-157996077D01*
X253744819Y-157996077D02*
X253744819Y-157757982D01*
X253744819Y-157757982D02*
X253792438Y-157615125D01*
X254744819Y-157186553D02*
X253744819Y-157186553D01*
X253744819Y-157186553D02*
X254744819Y-156615125D01*
X254744819Y-156615125D02*
X253744819Y-156615125D01*
X251252438Y-164409411D02*
X251204819Y-164504649D01*
X251204819Y-164504649D02*
X251204819Y-164647506D01*
X251204819Y-164647506D02*
X251252438Y-164790363D01*
X251252438Y-164790363D02*
X251347676Y-164885601D01*
X251347676Y-164885601D02*
X251442914Y-164933220D01*
X251442914Y-164933220D02*
X251633390Y-164980839D01*
X251633390Y-164980839D02*
X251776247Y-164980839D01*
X251776247Y-164980839D02*
X251966723Y-164933220D01*
X251966723Y-164933220D02*
X252061961Y-164885601D01*
X252061961Y-164885601D02*
X252157200Y-164790363D01*
X252157200Y-164790363D02*
X252204819Y-164647506D01*
X252204819Y-164647506D02*
X252204819Y-164552268D01*
X252204819Y-164552268D02*
X252157200Y-164409411D01*
X252157200Y-164409411D02*
X252109580Y-164361792D01*
X252109580Y-164361792D02*
X251776247Y-164361792D01*
X251776247Y-164361792D02*
X251776247Y-164552268D01*
X252204819Y-163933220D02*
X251204819Y-163933220D01*
X251204819Y-163933220D02*
X252204819Y-163361792D01*
X252204819Y-163361792D02*
X251204819Y-163361792D01*
X252204819Y-162885601D02*
X251204819Y-162885601D01*
X251204819Y-162885601D02*
X251204819Y-162647506D01*
X251204819Y-162647506D02*
X251252438Y-162504649D01*
X251252438Y-162504649D02*
X251347676Y-162409411D01*
X251347676Y-162409411D02*
X251442914Y-162361792D01*
X251442914Y-162361792D02*
X251633390Y-162314173D01*
X251633390Y-162314173D02*
X251776247Y-162314173D01*
X251776247Y-162314173D02*
X251966723Y-162361792D01*
X251966723Y-162361792D02*
X252061961Y-162409411D01*
X252061961Y-162409411D02*
X252157200Y-162504649D01*
X252157200Y-162504649D02*
X252204819Y-162647506D01*
X252204819Y-162647506D02*
X252204819Y-162885601D01*
X259824819Y-164933220D02*
X258824819Y-164933220D01*
X258824819Y-164933220D02*
X259539104Y-164599887D01*
X259539104Y-164599887D02*
X258824819Y-164266554D01*
X258824819Y-164266554D02*
X259824819Y-164266554D01*
X259824819Y-163790363D02*
X258824819Y-163790363D01*
X259777200Y-163361792D02*
X259824819Y-163218935D01*
X259824819Y-163218935D02*
X259824819Y-162980840D01*
X259824819Y-162980840D02*
X259777200Y-162885602D01*
X259777200Y-162885602D02*
X259729580Y-162837983D01*
X259729580Y-162837983D02*
X259634342Y-162790364D01*
X259634342Y-162790364D02*
X259539104Y-162790364D01*
X259539104Y-162790364D02*
X259443866Y-162837983D01*
X259443866Y-162837983D02*
X259396247Y-162885602D01*
X259396247Y-162885602D02*
X259348628Y-162980840D01*
X259348628Y-162980840D02*
X259301009Y-163171316D01*
X259301009Y-163171316D02*
X259253390Y-163266554D01*
X259253390Y-163266554D02*
X259205771Y-163314173D01*
X259205771Y-163314173D02*
X259110533Y-163361792D01*
X259110533Y-163361792D02*
X259015295Y-163361792D01*
X259015295Y-163361792D02*
X258920057Y-163314173D01*
X258920057Y-163314173D02*
X258872438Y-163266554D01*
X258872438Y-163266554D02*
X258824819Y-163171316D01*
X258824819Y-163171316D02*
X258824819Y-162933221D01*
X258824819Y-162933221D02*
X258872438Y-162790364D01*
X258824819Y-162171316D02*
X258824819Y-161980840D01*
X258824819Y-161980840D02*
X258872438Y-161885602D01*
X258872438Y-161885602D02*
X258967676Y-161790364D01*
X258967676Y-161790364D02*
X259158152Y-161742745D01*
X259158152Y-161742745D02*
X259491485Y-161742745D01*
X259491485Y-161742745D02*
X259681961Y-161790364D01*
X259681961Y-161790364D02*
X259777200Y-161885602D01*
X259777200Y-161885602D02*
X259824819Y-161980840D01*
X259824819Y-161980840D02*
X259824819Y-162171316D01*
X259824819Y-162171316D02*
X259777200Y-162266554D01*
X259777200Y-162266554D02*
X259681961Y-162361792D01*
X259681961Y-162361792D02*
X259491485Y-162409411D01*
X259491485Y-162409411D02*
X259158152Y-162409411D01*
X259158152Y-162409411D02*
X258967676Y-162361792D01*
X258967676Y-162361792D02*
X258872438Y-162266554D01*
X258872438Y-162266554D02*
X258824819Y-162171316D01*
X251204819Y-159996077D02*
X252204819Y-159662744D01*
X252204819Y-159662744D02*
X251204819Y-159329411D01*
X252109580Y-158424649D02*
X252157200Y-158472268D01*
X252157200Y-158472268D02*
X252204819Y-158615125D01*
X252204819Y-158615125D02*
X252204819Y-158710363D01*
X252204819Y-158710363D02*
X252157200Y-158853220D01*
X252157200Y-158853220D02*
X252061961Y-158948458D01*
X252061961Y-158948458D02*
X251966723Y-158996077D01*
X251966723Y-158996077D02*
X251776247Y-159043696D01*
X251776247Y-159043696D02*
X251633390Y-159043696D01*
X251633390Y-159043696D02*
X251442914Y-158996077D01*
X251442914Y-158996077D02*
X251347676Y-158948458D01*
X251347676Y-158948458D02*
X251252438Y-158853220D01*
X251252438Y-158853220D02*
X251204819Y-158710363D01*
X251204819Y-158710363D02*
X251204819Y-158615125D01*
X251204819Y-158615125D02*
X251252438Y-158472268D01*
X251252438Y-158472268D02*
X251300057Y-158424649D01*
X252109580Y-157424649D02*
X252157200Y-157472268D01*
X252157200Y-157472268D02*
X252204819Y-157615125D01*
X252204819Y-157615125D02*
X252204819Y-157710363D01*
X252204819Y-157710363D02*
X252157200Y-157853220D01*
X252157200Y-157853220D02*
X252061961Y-157948458D01*
X252061961Y-157948458D02*
X251966723Y-157996077D01*
X251966723Y-157996077D02*
X251776247Y-158043696D01*
X251776247Y-158043696D02*
X251633390Y-158043696D01*
X251633390Y-158043696D02*
X251442914Y-157996077D01*
X251442914Y-157996077D02*
X251347676Y-157948458D01*
X251347676Y-157948458D02*
X251252438Y-157853220D01*
X251252438Y-157853220D02*
X251204819Y-157710363D01*
X251204819Y-157710363D02*
X251204819Y-157615125D01*
X251204819Y-157615125D02*
X251252438Y-157472268D01*
X251252438Y-157472268D02*
X251300057Y-157424649D01*
X259824819Y-159853220D02*
X258824819Y-159853220D01*
X259824819Y-158805602D02*
X259348628Y-159138935D01*
X259824819Y-159377030D02*
X258824819Y-159377030D01*
X258824819Y-159377030D02*
X258824819Y-158996078D01*
X258824819Y-158996078D02*
X258872438Y-158900840D01*
X258872438Y-158900840D02*
X258920057Y-158853221D01*
X258920057Y-158853221D02*
X259015295Y-158805602D01*
X259015295Y-158805602D02*
X259158152Y-158805602D01*
X259158152Y-158805602D02*
X259253390Y-158853221D01*
X259253390Y-158853221D02*
X259301009Y-158900840D01*
X259301009Y-158900840D02*
X259348628Y-158996078D01*
X259348628Y-158996078D02*
X259348628Y-159377030D01*
X259920057Y-157710364D02*
X259872438Y-157805602D01*
X259872438Y-157805602D02*
X259777200Y-157900840D01*
X259777200Y-157900840D02*
X259634342Y-158043697D01*
X259634342Y-158043697D02*
X259586723Y-158138935D01*
X259586723Y-158138935D02*
X259586723Y-158234173D01*
X259824819Y-158186554D02*
X259777200Y-158281792D01*
X259777200Y-158281792D02*
X259681961Y-158377030D01*
X259681961Y-158377030D02*
X259491485Y-158424649D01*
X259491485Y-158424649D02*
X259158152Y-158424649D01*
X259158152Y-158424649D02*
X258967676Y-158377030D01*
X258967676Y-158377030D02*
X258872438Y-158281792D01*
X258872438Y-158281792D02*
X258824819Y-158186554D01*
X258824819Y-158186554D02*
X258824819Y-157996078D01*
X258824819Y-157996078D02*
X258872438Y-157900840D01*
X258872438Y-157900840D02*
X258967676Y-157805602D01*
X258967676Y-157805602D02*
X259158152Y-157757983D01*
X259158152Y-157757983D02*
X259491485Y-157757983D01*
X259491485Y-157757983D02*
X259681961Y-157805602D01*
X259681961Y-157805602D02*
X259777200Y-157900840D01*
X259777200Y-157900840D02*
X259824819Y-157996078D01*
X259824819Y-157996078D02*
X259824819Y-158186554D01*
X254649580Y-164361792D02*
X254697200Y-164409411D01*
X254697200Y-164409411D02*
X254744819Y-164552268D01*
X254744819Y-164552268D02*
X254744819Y-164647506D01*
X254744819Y-164647506D02*
X254697200Y-164790363D01*
X254697200Y-164790363D02*
X254601961Y-164885601D01*
X254601961Y-164885601D02*
X254506723Y-164933220D01*
X254506723Y-164933220D02*
X254316247Y-164980839D01*
X254316247Y-164980839D02*
X254173390Y-164980839D01*
X254173390Y-164980839D02*
X253982914Y-164933220D01*
X253982914Y-164933220D02*
X253887676Y-164885601D01*
X253887676Y-164885601D02*
X253792438Y-164790363D01*
X253792438Y-164790363D02*
X253744819Y-164647506D01*
X253744819Y-164647506D02*
X253744819Y-164552268D01*
X253744819Y-164552268D02*
X253792438Y-164409411D01*
X253792438Y-164409411D02*
X253840057Y-164361792D01*
X254221009Y-163933220D02*
X254221009Y-163599887D01*
X254744819Y-163457030D02*
X254744819Y-163933220D01*
X254744819Y-163933220D02*
X253744819Y-163933220D01*
X253744819Y-163933220D02*
X253744819Y-163457030D01*
X257284819Y-159853220D02*
X256284819Y-159853220D01*
X256284819Y-159853220D02*
X256999104Y-159519887D01*
X256999104Y-159519887D02*
X256284819Y-159186554D01*
X256284819Y-159186554D02*
X257284819Y-159186554D01*
X256284819Y-158519887D02*
X256284819Y-158329411D01*
X256284819Y-158329411D02*
X256332438Y-158234173D01*
X256332438Y-158234173D02*
X256427676Y-158138935D01*
X256427676Y-158138935D02*
X256618152Y-158091316D01*
X256618152Y-158091316D02*
X256951485Y-158091316D01*
X256951485Y-158091316D02*
X257141961Y-158138935D01*
X257141961Y-158138935D02*
X257237200Y-158234173D01*
X257237200Y-158234173D02*
X257284819Y-158329411D01*
X257284819Y-158329411D02*
X257284819Y-158519887D01*
X257284819Y-158519887D02*
X257237200Y-158615125D01*
X257237200Y-158615125D02*
X257141961Y-158710363D01*
X257141961Y-158710363D02*
X256951485Y-158757982D01*
X256951485Y-158757982D02*
X256618152Y-158757982D01*
X256618152Y-158757982D02*
X256427676Y-158710363D01*
X256427676Y-158710363D02*
X256332438Y-158615125D01*
X256332438Y-158615125D02*
X256284819Y-158519887D01*
X257237200Y-157710363D02*
X257284819Y-157567506D01*
X257284819Y-157567506D02*
X257284819Y-157329411D01*
X257284819Y-157329411D02*
X257237200Y-157234173D01*
X257237200Y-157234173D02*
X257189580Y-157186554D01*
X257189580Y-157186554D02*
X257094342Y-157138935D01*
X257094342Y-157138935D02*
X256999104Y-157138935D01*
X256999104Y-157138935D02*
X256903866Y-157186554D01*
X256903866Y-157186554D02*
X256856247Y-157234173D01*
X256856247Y-157234173D02*
X256808628Y-157329411D01*
X256808628Y-157329411D02*
X256761009Y-157519887D01*
X256761009Y-157519887D02*
X256713390Y-157615125D01*
X256713390Y-157615125D02*
X256665771Y-157662744D01*
X256665771Y-157662744D02*
X256570533Y-157710363D01*
X256570533Y-157710363D02*
X256475295Y-157710363D01*
X256475295Y-157710363D02*
X256380057Y-157662744D01*
X256380057Y-157662744D02*
X256332438Y-157615125D01*
X256332438Y-157615125D02*
X256284819Y-157519887D01*
X256284819Y-157519887D02*
X256284819Y-157281792D01*
X256284819Y-157281792D02*
X256332438Y-157138935D01*
X257284819Y-156710363D02*
X256284819Y-156710363D01*
X179416666Y-192904819D02*
X179416666Y-193619104D01*
X179416666Y-193619104D02*
X179369047Y-193761961D01*
X179369047Y-193761961D02*
X179273809Y-193857200D01*
X179273809Y-193857200D02*
X179130952Y-193904819D01*
X179130952Y-193904819D02*
X179035714Y-193904819D01*
X179845238Y-193000057D02*
X179892857Y-192952438D01*
X179892857Y-192952438D02*
X179988095Y-192904819D01*
X179988095Y-192904819D02*
X180226190Y-192904819D01*
X180226190Y-192904819D02*
X180321428Y-192952438D01*
X180321428Y-192952438D02*
X180369047Y-193000057D01*
X180369047Y-193000057D02*
X180416666Y-193095295D01*
X180416666Y-193095295D02*
X180416666Y-193190533D01*
X180416666Y-193190533D02*
X180369047Y-193333390D01*
X180369047Y-193333390D02*
X179797619Y-193904819D01*
X179797619Y-193904819D02*
X180416666Y-193904819D01*
X279332900Y-179721924D02*
X279370995Y-179607638D01*
X279370995Y-179607638D02*
X279370995Y-179417162D01*
X279370995Y-179417162D02*
X279332900Y-179340971D01*
X279332900Y-179340971D02*
X279294804Y-179302876D01*
X279294804Y-179302876D02*
X279218614Y-179264781D01*
X279218614Y-179264781D02*
X279142423Y-179264781D01*
X279142423Y-179264781D02*
X279066233Y-179302876D01*
X279066233Y-179302876D02*
X279028138Y-179340971D01*
X279028138Y-179340971D02*
X278990042Y-179417162D01*
X278990042Y-179417162D02*
X278951947Y-179569543D01*
X278951947Y-179569543D02*
X278913852Y-179645733D01*
X278913852Y-179645733D02*
X278875757Y-179683828D01*
X278875757Y-179683828D02*
X278799566Y-179721924D01*
X278799566Y-179721924D02*
X278723376Y-179721924D01*
X278723376Y-179721924D02*
X278647185Y-179683828D01*
X278647185Y-179683828D02*
X278609090Y-179645733D01*
X278609090Y-179645733D02*
X278570995Y-179569543D01*
X278570995Y-179569543D02*
X278570995Y-179379066D01*
X278570995Y-179379066D02*
X278609090Y-179264781D01*
X279370995Y-178502876D02*
X279370995Y-178960019D01*
X279370995Y-178731447D02*
X278570995Y-178731447D01*
X278570995Y-178731447D02*
X278685280Y-178807638D01*
X278685280Y-178807638D02*
X278761471Y-178883828D01*
X278761471Y-178883828D02*
X278799566Y-178960019D01*
X282188095Y-150757819D02*
X282188095Y-151567342D01*
X282188095Y-151567342D02*
X282235714Y-151662580D01*
X282235714Y-151662580D02*
X282283333Y-151710200D01*
X282283333Y-151710200D02*
X282378571Y-151757819D01*
X282378571Y-151757819D02*
X282569047Y-151757819D01*
X282569047Y-151757819D02*
X282664285Y-151710200D01*
X282664285Y-151710200D02*
X282711904Y-151662580D01*
X282711904Y-151662580D02*
X282759523Y-151567342D01*
X282759523Y-151567342D02*
X282759523Y-150757819D01*
X283759523Y-151757819D02*
X283188095Y-151757819D01*
X283473809Y-151757819D02*
X283473809Y-150757819D01*
X283473809Y-150757819D02*
X283378571Y-150900676D01*
X283378571Y-150900676D02*
X283283333Y-150995914D01*
X283283333Y-150995914D02*
X283188095Y-151043533D01*
X279219524Y-144090200D02*
X279362381Y-144137819D01*
X279362381Y-144137819D02*
X279600476Y-144137819D01*
X279600476Y-144137819D02*
X279695714Y-144090200D01*
X279695714Y-144090200D02*
X279743333Y-144042580D01*
X279743333Y-144042580D02*
X279790952Y-143947342D01*
X279790952Y-143947342D02*
X279790952Y-143852104D01*
X279790952Y-143852104D02*
X279743333Y-143756866D01*
X279743333Y-143756866D02*
X279695714Y-143709247D01*
X279695714Y-143709247D02*
X279600476Y-143661628D01*
X279600476Y-143661628D02*
X279410000Y-143614009D01*
X279410000Y-143614009D02*
X279314762Y-143566390D01*
X279314762Y-143566390D02*
X279267143Y-143518771D01*
X279267143Y-143518771D02*
X279219524Y-143423533D01*
X279219524Y-143423533D02*
X279219524Y-143328295D01*
X279219524Y-143328295D02*
X279267143Y-143233057D01*
X279267143Y-143233057D02*
X279314762Y-143185438D01*
X279314762Y-143185438D02*
X279410000Y-143137819D01*
X279410000Y-143137819D02*
X279648095Y-143137819D01*
X279648095Y-143137819D02*
X279790952Y-143185438D01*
X280790952Y-144042580D02*
X280743333Y-144090200D01*
X280743333Y-144090200D02*
X280600476Y-144137819D01*
X280600476Y-144137819D02*
X280505238Y-144137819D01*
X280505238Y-144137819D02*
X280362381Y-144090200D01*
X280362381Y-144090200D02*
X280267143Y-143994961D01*
X280267143Y-143994961D02*
X280219524Y-143899723D01*
X280219524Y-143899723D02*
X280171905Y-143709247D01*
X280171905Y-143709247D02*
X280171905Y-143566390D01*
X280171905Y-143566390D02*
X280219524Y-143375914D01*
X280219524Y-143375914D02*
X280267143Y-143280676D01*
X280267143Y-143280676D02*
X280362381Y-143185438D01*
X280362381Y-143185438D02*
X280505238Y-143137819D01*
X280505238Y-143137819D02*
X280600476Y-143137819D01*
X280600476Y-143137819D02*
X280743333Y-143185438D01*
X280743333Y-143185438D02*
X280790952Y-143233057D01*
X281695714Y-144137819D02*
X281219524Y-144137819D01*
X281219524Y-144137819D02*
X281219524Y-143137819D01*
X279148095Y-138057819D02*
X279814761Y-139057819D01*
X279814761Y-138057819D02*
X279148095Y-139057819D01*
X280195714Y-139057819D02*
X280195714Y-138057819D01*
X280195714Y-138057819D02*
X280433809Y-138057819D01*
X280433809Y-138057819D02*
X280576666Y-138105438D01*
X280576666Y-138105438D02*
X280671904Y-138200676D01*
X280671904Y-138200676D02*
X280719523Y-138295914D01*
X280719523Y-138295914D02*
X280767142Y-138486390D01*
X280767142Y-138486390D02*
X280767142Y-138629247D01*
X280767142Y-138629247D02*
X280719523Y-138819723D01*
X280719523Y-138819723D02*
X280671904Y-138914961D01*
X280671904Y-138914961D02*
X280576666Y-139010200D01*
X280576666Y-139010200D02*
X280433809Y-139057819D01*
X280433809Y-139057819D02*
X280195714Y-139057819D01*
X281148095Y-138772104D02*
X281624285Y-138772104D01*
X281052857Y-139057819D02*
X281386190Y-138057819D01*
X281386190Y-138057819D02*
X281719523Y-139057819D01*
X279171905Y-135517819D02*
X279838571Y-136517819D01*
X279838571Y-135517819D02*
X279171905Y-136517819D01*
X280790952Y-136422580D02*
X280743333Y-136470200D01*
X280743333Y-136470200D02*
X280600476Y-136517819D01*
X280600476Y-136517819D02*
X280505238Y-136517819D01*
X280505238Y-136517819D02*
X280362381Y-136470200D01*
X280362381Y-136470200D02*
X280267143Y-136374961D01*
X280267143Y-136374961D02*
X280219524Y-136279723D01*
X280219524Y-136279723D02*
X280171905Y-136089247D01*
X280171905Y-136089247D02*
X280171905Y-135946390D01*
X280171905Y-135946390D02*
X280219524Y-135755914D01*
X280219524Y-135755914D02*
X280267143Y-135660676D01*
X280267143Y-135660676D02*
X280362381Y-135565438D01*
X280362381Y-135565438D02*
X280505238Y-135517819D01*
X280505238Y-135517819D02*
X280600476Y-135517819D01*
X280600476Y-135517819D02*
X280743333Y-135565438D01*
X280743333Y-135565438D02*
X280790952Y-135613057D01*
X281695714Y-136517819D02*
X281219524Y-136517819D01*
X281219524Y-136517819D02*
X281219524Y-135517819D01*
X279505238Y-131437819D02*
X279505238Y-130437819D01*
X279981428Y-131437819D02*
X279981428Y-130437819D01*
X279981428Y-130437819D02*
X280552856Y-131437819D01*
X280552856Y-131437819D02*
X280552856Y-130437819D01*
X280886190Y-130437819D02*
X281457618Y-130437819D01*
X281171904Y-131437819D02*
X281171904Y-130437819D01*
X279648095Y-145725438D02*
X279552857Y-145677819D01*
X279552857Y-145677819D02*
X279410000Y-145677819D01*
X279410000Y-145677819D02*
X279267143Y-145725438D01*
X279267143Y-145725438D02*
X279171905Y-145820676D01*
X279171905Y-145820676D02*
X279124286Y-145915914D01*
X279124286Y-145915914D02*
X279076667Y-146106390D01*
X279076667Y-146106390D02*
X279076667Y-146249247D01*
X279076667Y-146249247D02*
X279124286Y-146439723D01*
X279124286Y-146439723D02*
X279171905Y-146534961D01*
X279171905Y-146534961D02*
X279267143Y-146630200D01*
X279267143Y-146630200D02*
X279410000Y-146677819D01*
X279410000Y-146677819D02*
X279505238Y-146677819D01*
X279505238Y-146677819D02*
X279648095Y-146630200D01*
X279648095Y-146630200D02*
X279695714Y-146582580D01*
X279695714Y-146582580D02*
X279695714Y-146249247D01*
X279695714Y-146249247D02*
X279505238Y-146249247D01*
X280124286Y-146677819D02*
X280124286Y-145677819D01*
X280124286Y-145677819D02*
X280695714Y-146677819D01*
X280695714Y-146677819D02*
X280695714Y-145677819D01*
X281171905Y-146677819D02*
X281171905Y-145677819D01*
X281171905Y-145677819D02*
X281410000Y-145677819D01*
X281410000Y-145677819D02*
X281552857Y-145725438D01*
X281552857Y-145725438D02*
X281648095Y-145820676D01*
X281648095Y-145820676D02*
X281695714Y-145915914D01*
X281695714Y-145915914D02*
X281743333Y-146106390D01*
X281743333Y-146106390D02*
X281743333Y-146249247D01*
X281743333Y-146249247D02*
X281695714Y-146439723D01*
X281695714Y-146439723D02*
X281648095Y-146534961D01*
X281648095Y-146534961D02*
X281552857Y-146630200D01*
X281552857Y-146630200D02*
X281410000Y-146677819D01*
X281410000Y-146677819D02*
X281171905Y-146677819D01*
X279195714Y-141550200D02*
X279338571Y-141597819D01*
X279338571Y-141597819D02*
X279576666Y-141597819D01*
X279576666Y-141597819D02*
X279671904Y-141550200D01*
X279671904Y-141550200D02*
X279719523Y-141502580D01*
X279719523Y-141502580D02*
X279767142Y-141407342D01*
X279767142Y-141407342D02*
X279767142Y-141312104D01*
X279767142Y-141312104D02*
X279719523Y-141216866D01*
X279719523Y-141216866D02*
X279671904Y-141169247D01*
X279671904Y-141169247D02*
X279576666Y-141121628D01*
X279576666Y-141121628D02*
X279386190Y-141074009D01*
X279386190Y-141074009D02*
X279290952Y-141026390D01*
X279290952Y-141026390D02*
X279243333Y-140978771D01*
X279243333Y-140978771D02*
X279195714Y-140883533D01*
X279195714Y-140883533D02*
X279195714Y-140788295D01*
X279195714Y-140788295D02*
X279243333Y-140693057D01*
X279243333Y-140693057D02*
X279290952Y-140645438D01*
X279290952Y-140645438D02*
X279386190Y-140597819D01*
X279386190Y-140597819D02*
X279624285Y-140597819D01*
X279624285Y-140597819D02*
X279767142Y-140645438D01*
X280195714Y-141597819D02*
X280195714Y-140597819D01*
X280195714Y-140597819D02*
X280433809Y-140597819D01*
X280433809Y-140597819D02*
X280576666Y-140645438D01*
X280576666Y-140645438D02*
X280671904Y-140740676D01*
X280671904Y-140740676D02*
X280719523Y-140835914D01*
X280719523Y-140835914D02*
X280767142Y-141026390D01*
X280767142Y-141026390D02*
X280767142Y-141169247D01*
X280767142Y-141169247D02*
X280719523Y-141359723D01*
X280719523Y-141359723D02*
X280671904Y-141454961D01*
X280671904Y-141454961D02*
X280576666Y-141550200D01*
X280576666Y-141550200D02*
X280433809Y-141597819D01*
X280433809Y-141597819D02*
X280195714Y-141597819D01*
X281148095Y-141312104D02*
X281624285Y-141312104D01*
X281052857Y-141597819D02*
X281386190Y-140597819D01*
X281386190Y-140597819D02*
X281719523Y-141597819D01*
X279171905Y-133692104D02*
X279648095Y-133692104D01*
X279076667Y-133977819D02*
X279410000Y-132977819D01*
X279410000Y-132977819D02*
X279743333Y-133977819D01*
X280076667Y-133977819D02*
X280076667Y-132977819D01*
X280076667Y-132977819D02*
X280314762Y-132977819D01*
X280314762Y-132977819D02*
X280457619Y-133025438D01*
X280457619Y-133025438D02*
X280552857Y-133120676D01*
X280552857Y-133120676D02*
X280600476Y-133215914D01*
X280600476Y-133215914D02*
X280648095Y-133406390D01*
X280648095Y-133406390D02*
X280648095Y-133549247D01*
X280648095Y-133549247D02*
X280600476Y-133739723D01*
X280600476Y-133739723D02*
X280552857Y-133834961D01*
X280552857Y-133834961D02*
X280457619Y-133930200D01*
X280457619Y-133930200D02*
X280314762Y-133977819D01*
X280314762Y-133977819D02*
X280076667Y-133977819D01*
X281076667Y-133977819D02*
X281076667Y-132977819D01*
X281076667Y-132977819D02*
X281314762Y-132977819D01*
X281314762Y-132977819D02*
X281457619Y-133025438D01*
X281457619Y-133025438D02*
X281552857Y-133120676D01*
X281552857Y-133120676D02*
X281600476Y-133215914D01*
X281600476Y-133215914D02*
X281648095Y-133406390D01*
X281648095Y-133406390D02*
X281648095Y-133549247D01*
X281648095Y-133549247D02*
X281600476Y-133739723D01*
X281600476Y-133739723D02*
X281552857Y-133834961D01*
X281552857Y-133834961D02*
X281457619Y-133930200D01*
X281457619Y-133930200D02*
X281314762Y-133977819D01*
X281314762Y-133977819D02*
X281076667Y-133977819D01*
X279076667Y-148217819D02*
X279410000Y-149217819D01*
X279410000Y-149217819D02*
X279743333Y-148217819D01*
X280648095Y-149122580D02*
X280600476Y-149170200D01*
X280600476Y-149170200D02*
X280457619Y-149217819D01*
X280457619Y-149217819D02*
X280362381Y-149217819D01*
X280362381Y-149217819D02*
X280219524Y-149170200D01*
X280219524Y-149170200D02*
X280124286Y-149074961D01*
X280124286Y-149074961D02*
X280076667Y-148979723D01*
X280076667Y-148979723D02*
X280029048Y-148789247D01*
X280029048Y-148789247D02*
X280029048Y-148646390D01*
X280029048Y-148646390D02*
X280076667Y-148455914D01*
X280076667Y-148455914D02*
X280124286Y-148360676D01*
X280124286Y-148360676D02*
X280219524Y-148265438D01*
X280219524Y-148265438D02*
X280362381Y-148217819D01*
X280362381Y-148217819D02*
X280457619Y-148217819D01*
X280457619Y-148217819D02*
X280600476Y-148265438D01*
X280600476Y-148265438D02*
X280648095Y-148313057D01*
X281648095Y-149122580D02*
X281600476Y-149170200D01*
X281600476Y-149170200D02*
X281457619Y-149217819D01*
X281457619Y-149217819D02*
X281362381Y-149217819D01*
X281362381Y-149217819D02*
X281219524Y-149170200D01*
X281219524Y-149170200D02*
X281124286Y-149074961D01*
X281124286Y-149074961D02*
X281076667Y-148979723D01*
X281076667Y-148979723D02*
X281029048Y-148789247D01*
X281029048Y-148789247D02*
X281029048Y-148646390D01*
X281029048Y-148646390D02*
X281076667Y-148455914D01*
X281076667Y-148455914D02*
X281124286Y-148360676D01*
X281124286Y-148360676D02*
X281219524Y-148265438D01*
X281219524Y-148265438D02*
X281362381Y-148217819D01*
X281362381Y-148217819D02*
X281457619Y-148217819D01*
X281457619Y-148217819D02*
X281600476Y-148265438D01*
X281600476Y-148265438D02*
X281648095Y-148313057D01*
D13*
%TO.C,REF\u002A\u002A*%
X152942936Y-152760000D02*
X154397064Y-152760000D01*
X152942936Y-154580000D02*
X154397064Y-154580000D01*
%TO.C,D2*%
X272232000Y-177793000D02*
X272232000Y-174933000D01*
X272232000Y-174933000D02*
X270312000Y-174933000D01*
X270312000Y-174933000D02*
X270312000Y-177793000D01*
%TO.C,D1*%
X288916000Y-179981000D02*
X284616000Y-179981000D01*
X288916000Y-179981000D02*
X288916000Y-187391000D01*
X284616000Y-179981000D02*
X284616000Y-187391000D01*
%TO.C,F2*%
X277016000Y-189019000D02*
X276886000Y-188869000D01*
X277196000Y-189099000D02*
X277016000Y-189019000D01*
X277486000Y-189139000D02*
X277196000Y-189099000D01*
X277776000Y-189059000D02*
X277486000Y-189139000D01*
X277916000Y-187819000D02*
X278036000Y-187959000D01*
X277996000Y-188889000D02*
X277776000Y-189059000D01*
X278036000Y-187959000D02*
X278126000Y-188119000D01*
X278126000Y-188119000D02*
X278176000Y-188369000D01*
X278146000Y-188629000D02*
X277996000Y-188889000D01*
X278176000Y-188369000D02*
X278146000Y-188629000D01*
X278816000Y-185039000D02*
G75*
G02*
X269316000Y-185039000I-4750000J0D01*
G01*
X269316000Y-185039000D02*
G75*
G02*
X278816000Y-185039000I4750000J0D01*
G01*
%TO.C,J4*%
X281400000Y-164225000D02*
X281400000Y-165475000D01*
X281690000Y-164515000D02*
X281690000Y-170485000D01*
X281690000Y-170485000D02*
X289310000Y-170485000D01*
X281700000Y-164525000D02*
X281700000Y-165275000D01*
X281700000Y-165275000D02*
X283500000Y-165275000D01*
X281700000Y-166775000D02*
X282450000Y-166775000D01*
X282450000Y-166775000D02*
X282450000Y-168115000D01*
X282650000Y-164225000D02*
X281400000Y-164225000D01*
X283500000Y-164525000D02*
X281700000Y-164525000D01*
X283500000Y-165275000D02*
X283500000Y-164525000D01*
X285000000Y-164525000D02*
X285000000Y-165275000D01*
X285000000Y-165275000D02*
X286000000Y-165275000D01*
X285500000Y-169725000D02*
X283510000Y-169725000D01*
X286000000Y-164525000D02*
X285000000Y-164525000D01*
X286000000Y-165275000D02*
X286000000Y-164525000D01*
X287500000Y-164525000D02*
X287500000Y-165275000D01*
X287500000Y-165275000D02*
X289300000Y-165275000D01*
X288550000Y-166775000D02*
X288550000Y-169725000D01*
X288550000Y-169725000D02*
X285500000Y-169725000D01*
X289300000Y-164525000D02*
X287500000Y-164525000D01*
X289300000Y-165275000D02*
X289300000Y-164525000D01*
X289300000Y-166775000D02*
X288550000Y-166775000D01*
X289310000Y-164515000D02*
X281690000Y-164515000D01*
X289310000Y-170485000D02*
X289310000Y-164515000D01*
%TO.C,J6*%
X209650000Y-194250000D02*
X209650000Y-195500000D01*
X209940000Y-194540000D02*
X209940000Y-200510000D01*
X209940000Y-200510000D02*
X217560000Y-200510000D01*
X209950000Y-194550000D02*
X209950000Y-195300000D01*
X209950000Y-195300000D02*
X211750000Y-195300000D01*
X209950000Y-196800000D02*
X210700000Y-196800000D01*
X210700000Y-196800000D02*
X210700000Y-198140000D01*
X210900000Y-194250000D02*
X209650000Y-194250000D01*
X211750000Y-194550000D02*
X209950000Y-194550000D01*
X211750000Y-195300000D02*
X211750000Y-194550000D01*
X213250000Y-194550000D02*
X213250000Y-195300000D01*
X213250000Y-195300000D02*
X214250000Y-195300000D01*
X213750000Y-199750000D02*
X211760000Y-199750000D01*
X214250000Y-194550000D02*
X213250000Y-194550000D01*
X214250000Y-195300000D02*
X214250000Y-194550000D01*
X215750000Y-194550000D02*
X215750000Y-195300000D01*
X215750000Y-195300000D02*
X217550000Y-195300000D01*
X216800000Y-196800000D02*
X216800000Y-199750000D01*
X216800000Y-199750000D02*
X213750000Y-199750000D01*
X217550000Y-194550000D02*
X215750000Y-194550000D01*
X217550000Y-195300000D02*
X217550000Y-194550000D01*
X217550000Y-196800000D02*
X216800000Y-196800000D01*
X217560000Y-194540000D02*
X209940000Y-194540000D01*
X217560000Y-200510000D02*
X217560000Y-194540000D01*
%TO.C,J1*%
X143650000Y-123750000D02*
X143650000Y-125000000D01*
X143940000Y-124040000D02*
X143940000Y-130010000D01*
X143940000Y-130010000D02*
X161560000Y-130010000D01*
X143950000Y-124050000D02*
X143950000Y-124800000D01*
X143950000Y-124800000D02*
X145750000Y-124800000D01*
X143950000Y-126300000D02*
X144700000Y-126300000D01*
X144700000Y-126300000D02*
X144700000Y-127640000D01*
X144900000Y-123750000D02*
X143650000Y-123750000D01*
X145750000Y-124050000D02*
X143950000Y-124050000D01*
X145750000Y-124800000D02*
X145750000Y-124050000D01*
X147250000Y-124050000D02*
X147250000Y-124800000D01*
X147250000Y-124800000D02*
X158250000Y-124800000D01*
X152750000Y-129250000D02*
X145760000Y-129250000D01*
X158250000Y-124050000D02*
X147250000Y-124050000D01*
X158250000Y-124800000D02*
X158250000Y-124050000D01*
X159750000Y-124050000D02*
X159750000Y-124800000D01*
X159750000Y-124800000D02*
X161550000Y-124800000D01*
X160800000Y-126300000D02*
X160800000Y-129250000D01*
X160800000Y-129250000D02*
X152750000Y-129250000D01*
X161550000Y-124050000D02*
X159750000Y-124050000D01*
X161550000Y-124800000D02*
X161550000Y-124050000D01*
X161550000Y-126300000D02*
X160800000Y-126300000D01*
X161560000Y-124040000D02*
X143940000Y-124040000D01*
X161560000Y-130010000D02*
X161560000Y-124040000D01*
%TO.C,JST1*%
X298725000Y-131350000D02*
X298725000Y-132600000D01*
X298725000Y-132600000D02*
X299975000Y-132600000D01*
X299015000Y-114690000D02*
X299015000Y-132310000D01*
X299015000Y-132310000D02*
X304985000Y-132310000D01*
X299025000Y-114700000D02*
X299025000Y-116500000D01*
X299025000Y-116500000D02*
X299775000Y-116500000D01*
X299025000Y-118000000D02*
X299025000Y-129000000D01*
X299025000Y-129000000D02*
X299775000Y-129000000D01*
X299025000Y-130500000D02*
X299025000Y-132300000D01*
X299025000Y-132300000D02*
X299775000Y-132300000D01*
X299775000Y-114700000D02*
X299025000Y-114700000D01*
X299775000Y-116500000D02*
X299775000Y-114700000D01*
X299775000Y-118000000D02*
X299025000Y-118000000D01*
X299775000Y-129000000D02*
X299775000Y-118000000D01*
X299775000Y-130500000D02*
X299025000Y-130500000D01*
X299775000Y-132300000D02*
X299775000Y-130500000D01*
X301275000Y-114700000D02*
X301275000Y-115450000D01*
X301275000Y-115450000D02*
X304225000Y-115450000D01*
X301275000Y-131550000D02*
X302615000Y-131550000D01*
X301275000Y-132300000D02*
X301275000Y-131550000D01*
X304225000Y-115450000D02*
X304225000Y-123500000D01*
X304225000Y-123500000D02*
X304225000Y-130490000D01*
X304985000Y-114690000D02*
X299015000Y-114690000D01*
X304985000Y-132310000D02*
X304985000Y-114690000D01*
%TO.C,U3*%
X239300000Y-175390000D02*
X243060000Y-175390000D01*
X239300000Y-182210000D02*
X243060000Y-182210000D01*
X243060000Y-175390000D02*
X243060000Y-176650000D01*
X243060000Y-182210000D02*
X243060000Y-180950000D01*
X238020000Y-175490000D02*
X237780000Y-175160000D01*
X238260000Y-175160000D01*
X238020000Y-175490000D01*
G36*
X238020000Y-175490000D02*
G01*
X237780000Y-175160000D01*
X238260000Y-175160000D01*
X238020000Y-175490000D01*
G37*
%TO.C,C2*%
X248090000Y-179326248D02*
X248090000Y-180748752D01*
X249910000Y-179326248D02*
X249910000Y-180748752D01*
%TO.C,JST6*%
X246750000Y-193250000D02*
X246750000Y-194500000D01*
X247040000Y-193540000D02*
X247040000Y-199510000D01*
X247040000Y-199510000D02*
X264660000Y-199510000D01*
X247050000Y-193550000D02*
X247050000Y-194300000D01*
X247050000Y-194300000D02*
X248850000Y-194300000D01*
X247050000Y-195800000D02*
X247800000Y-195800000D01*
X247800000Y-195800000D02*
X247800000Y-197140000D01*
X248000000Y-193250000D02*
X246750000Y-193250000D01*
X248850000Y-193550000D02*
X247050000Y-193550000D01*
X248850000Y-194300000D02*
X248850000Y-193550000D01*
X250350000Y-193550000D02*
X250350000Y-194300000D01*
X250350000Y-194300000D02*
X261350000Y-194300000D01*
X255850000Y-198750000D02*
X248860000Y-198750000D01*
X261350000Y-193550000D02*
X250350000Y-193550000D01*
X261350000Y-194300000D02*
X261350000Y-193550000D01*
X262850000Y-193550000D02*
X262850000Y-194300000D01*
X262850000Y-194300000D02*
X264650000Y-194300000D01*
X263900000Y-195800000D02*
X263900000Y-198750000D01*
X263900000Y-198750000D02*
X255850000Y-198750000D01*
X264650000Y-193550000D02*
X262850000Y-193550000D01*
X264650000Y-194300000D02*
X264650000Y-193550000D01*
X264650000Y-195800000D02*
X263900000Y-195800000D01*
X264660000Y-193540000D02*
X247040000Y-193540000D01*
X264660000Y-199510000D02*
X264660000Y-193540000D01*
%TO.C,JST7*%
X270250000Y-193250000D02*
X270250000Y-194500000D01*
X270540000Y-193540000D02*
X270540000Y-199510000D01*
X270540000Y-199510000D02*
X288160000Y-199510000D01*
X270550000Y-193550000D02*
X270550000Y-194300000D01*
X270550000Y-194300000D02*
X272350000Y-194300000D01*
X270550000Y-195800000D02*
X271300000Y-195800000D01*
X271300000Y-195800000D02*
X271300000Y-197140000D01*
X271500000Y-193250000D02*
X270250000Y-193250000D01*
X272350000Y-193550000D02*
X270550000Y-193550000D01*
X272350000Y-194300000D02*
X272350000Y-193550000D01*
X273850000Y-193550000D02*
X273850000Y-194300000D01*
X273850000Y-194300000D02*
X284850000Y-194300000D01*
X279350000Y-198750000D02*
X272360000Y-198750000D01*
X284850000Y-193550000D02*
X273850000Y-193550000D01*
X284850000Y-194300000D02*
X284850000Y-193550000D01*
X286350000Y-193550000D02*
X286350000Y-194300000D01*
X286350000Y-194300000D02*
X288150000Y-194300000D01*
X287400000Y-195800000D02*
X287400000Y-198750000D01*
X287400000Y-198750000D02*
X279350000Y-198750000D01*
X288150000Y-193550000D02*
X286350000Y-193550000D01*
X288150000Y-194300000D02*
X288150000Y-193550000D01*
X288150000Y-195800000D02*
X287400000Y-195800000D01*
X288160000Y-193540000D02*
X270540000Y-193540000D01*
X288160000Y-199510000D02*
X288160000Y-193540000D01*
%TO.C,R1*%
X275188000Y-176336936D02*
X275188000Y-177791064D01*
X277008000Y-176336936D02*
X277008000Y-177791064D01*
%TO.C,JST5*%
X223250000Y-193250000D02*
X223250000Y-194500000D01*
X223540000Y-193540000D02*
X223540000Y-199510000D01*
X223540000Y-199510000D02*
X241160000Y-199510000D01*
X223550000Y-193550000D02*
X223550000Y-194300000D01*
X223550000Y-194300000D02*
X225350000Y-194300000D01*
X223550000Y-195800000D02*
X224300000Y-195800000D01*
X224300000Y-195800000D02*
X224300000Y-197140000D01*
X224500000Y-193250000D02*
X223250000Y-193250000D01*
X225350000Y-193550000D02*
X223550000Y-193550000D01*
X225350000Y-194300000D02*
X225350000Y-193550000D01*
X226850000Y-193550000D02*
X226850000Y-194300000D01*
X226850000Y-194300000D02*
X237850000Y-194300000D01*
X232350000Y-198750000D02*
X225360000Y-198750000D01*
X237850000Y-193550000D02*
X226850000Y-193550000D01*
X237850000Y-194300000D02*
X237850000Y-193550000D01*
X239350000Y-193550000D02*
X239350000Y-194300000D01*
X239350000Y-194300000D02*
X241150000Y-194300000D01*
X240400000Y-195800000D02*
X240400000Y-198750000D01*
X240400000Y-198750000D02*
X232350000Y-198750000D01*
X241150000Y-193550000D02*
X239350000Y-193550000D01*
X241150000Y-194300000D02*
X241150000Y-193550000D01*
X241150000Y-195800000D02*
X240400000Y-195800000D01*
X241160000Y-193540000D02*
X223540000Y-193540000D01*
X241160000Y-199510000D02*
X241160000Y-193540000D01*
%TO.C,J3*%
X204150000Y-122750000D02*
X204150000Y-124000000D01*
X204440000Y-123040000D02*
X204440000Y-129010000D01*
X204440000Y-129010000D02*
X222060000Y-129010000D01*
X204450000Y-123050000D02*
X204450000Y-123800000D01*
X204450000Y-123800000D02*
X206250000Y-123800000D01*
X204450000Y-125300000D02*
X205200000Y-125300000D01*
X205200000Y-125300000D02*
X205200000Y-126640000D01*
X205400000Y-122750000D02*
X204150000Y-122750000D01*
X206250000Y-123050000D02*
X204450000Y-123050000D01*
X206250000Y-123800000D02*
X206250000Y-123050000D01*
X207750000Y-123050000D02*
X207750000Y-123800000D01*
X207750000Y-123800000D02*
X218750000Y-123800000D01*
X213250000Y-128250000D02*
X206260000Y-128250000D01*
X218750000Y-123050000D02*
X207750000Y-123050000D01*
X218750000Y-123800000D02*
X218750000Y-123050000D01*
X220250000Y-123050000D02*
X220250000Y-123800000D01*
X220250000Y-123800000D02*
X222050000Y-123800000D01*
X221300000Y-125300000D02*
X221300000Y-128250000D01*
X221300000Y-128250000D02*
X213250000Y-128250000D01*
X222050000Y-123050000D02*
X220250000Y-123050000D01*
X222050000Y-123800000D02*
X222050000Y-123050000D01*
X222050000Y-125300000D02*
X221300000Y-125300000D01*
X222060000Y-123040000D02*
X204440000Y-123040000D01*
X222060000Y-129010000D02*
X222060000Y-123040000D01*
%TO.C,JST9*%
X279650000Y-114750000D02*
X279650000Y-116000000D01*
X279940000Y-115040000D02*
X279940000Y-121010000D01*
X279940000Y-121010000D02*
X297560000Y-121010000D01*
X279950000Y-115050000D02*
X279950000Y-115800000D01*
X279950000Y-115800000D02*
X281750000Y-115800000D01*
X279950000Y-117300000D02*
X280700000Y-117300000D01*
X280700000Y-117300000D02*
X280700000Y-118640000D01*
X280900000Y-114750000D02*
X279650000Y-114750000D01*
X281750000Y-115050000D02*
X279950000Y-115050000D01*
X281750000Y-115800000D02*
X281750000Y-115050000D01*
X283250000Y-115050000D02*
X283250000Y-115800000D01*
X283250000Y-115800000D02*
X294250000Y-115800000D01*
X288750000Y-120250000D02*
X281760000Y-120250000D01*
X294250000Y-115050000D02*
X283250000Y-115050000D01*
X294250000Y-115800000D02*
X294250000Y-115050000D01*
X295750000Y-115050000D02*
X295750000Y-115800000D01*
X295750000Y-115800000D02*
X297550000Y-115800000D01*
X296800000Y-117300000D02*
X296800000Y-120250000D01*
X296800000Y-120250000D02*
X288750000Y-120250000D01*
X297550000Y-115050000D02*
X295750000Y-115050000D01*
X297550000Y-115800000D02*
X297550000Y-115050000D01*
X297550000Y-117300000D02*
X296800000Y-117300000D01*
X297560000Y-115040000D02*
X279940000Y-115040000D01*
X297560000Y-121010000D02*
X297560000Y-115040000D01*
%TO.C,C1*%
X232090000Y-178748752D02*
X232090000Y-177326248D01*
X233910000Y-178748752D02*
X233910000Y-177326248D01*
%TO.C,JST4*%
X271440000Y-154990000D02*
X271440000Y-160960000D01*
X271440000Y-160960000D02*
X289060000Y-160960000D01*
X271450000Y-158700000D02*
X272200000Y-158700000D01*
X271450000Y-160200000D02*
X271450000Y-160950000D01*
X271450000Y-160950000D02*
X273250000Y-160950000D01*
X272200000Y-155750000D02*
X280250000Y-155750000D01*
X272200000Y-158700000D02*
X272200000Y-155750000D01*
X273250000Y-160200000D02*
X271450000Y-160200000D01*
X273250000Y-160950000D02*
X273250000Y-160200000D01*
X274750000Y-160200000D02*
X274750000Y-160950000D01*
X274750000Y-160950000D02*
X285750000Y-160950000D01*
X280250000Y-155750000D02*
X287240000Y-155750000D01*
X285750000Y-160200000D02*
X274750000Y-160200000D01*
X285750000Y-160950000D02*
X285750000Y-160200000D01*
X287250000Y-160200000D02*
X287250000Y-160950000D01*
X287250000Y-160950000D02*
X289050000Y-160950000D01*
X288100000Y-161250000D02*
X289350000Y-161250000D01*
X288300000Y-158700000D02*
X288300000Y-157360000D01*
X289050000Y-158700000D02*
X288300000Y-158700000D01*
X289050000Y-160200000D02*
X287250000Y-160200000D01*
X289050000Y-160950000D02*
X289050000Y-160200000D01*
X289060000Y-154990000D02*
X271440000Y-154990000D01*
X289060000Y-160960000D02*
X289060000Y-154990000D01*
X289350000Y-161250000D02*
X289350000Y-160000000D01*
%TO.C,JST10*%
X138650000Y-194250000D02*
X138650000Y-195500000D01*
X138940000Y-194540000D02*
X138940000Y-200510000D01*
X138940000Y-200510000D02*
X151560000Y-200510000D01*
X138950000Y-194550000D02*
X138950000Y-195300000D01*
X138950000Y-195300000D02*
X140750000Y-195300000D01*
X138950000Y-196800000D02*
X139700000Y-196800000D01*
X139700000Y-196800000D02*
X139700000Y-198140000D01*
X139900000Y-194250000D02*
X138650000Y-194250000D01*
X140750000Y-194550000D02*
X138950000Y-194550000D01*
X140750000Y-195300000D02*
X140750000Y-194550000D01*
X142250000Y-194550000D02*
X142250000Y-195300000D01*
X142250000Y-195300000D02*
X148250000Y-195300000D01*
X145250000Y-199750000D02*
X140760000Y-199750000D01*
X148250000Y-194550000D02*
X142250000Y-194550000D01*
X148250000Y-195300000D02*
X148250000Y-194550000D01*
X149750000Y-194550000D02*
X149750000Y-195300000D01*
X149750000Y-195300000D02*
X151550000Y-195300000D01*
X150800000Y-196800000D02*
X150800000Y-199750000D01*
X150800000Y-199750000D02*
X145250000Y-199750000D01*
X151550000Y-194550000D02*
X149750000Y-194550000D01*
X151550000Y-195300000D02*
X151550000Y-194550000D01*
X151550000Y-196800000D02*
X150800000Y-196800000D01*
X151560000Y-194540000D02*
X138940000Y-194540000D01*
X151560000Y-200510000D02*
X151560000Y-194540000D01*
%TO.C,JST8*%
X259400000Y-114750000D02*
X259400000Y-116000000D01*
X259690000Y-115040000D02*
X259690000Y-121010000D01*
X259690000Y-121010000D02*
X277310000Y-121010000D01*
X259700000Y-115050000D02*
X259700000Y-115800000D01*
X259700000Y-115800000D02*
X261500000Y-115800000D01*
X259700000Y-117300000D02*
X260450000Y-117300000D01*
X260450000Y-117300000D02*
X260450000Y-118640000D01*
X260650000Y-114750000D02*
X259400000Y-114750000D01*
X261500000Y-115050000D02*
X259700000Y-115050000D01*
X261500000Y-115800000D02*
X261500000Y-115050000D01*
X263000000Y-115050000D02*
X263000000Y-115800000D01*
X263000000Y-115800000D02*
X274000000Y-115800000D01*
X268500000Y-120250000D02*
X261510000Y-120250000D01*
X274000000Y-115050000D02*
X263000000Y-115050000D01*
X274000000Y-115800000D02*
X274000000Y-115050000D01*
X275500000Y-115050000D02*
X275500000Y-115800000D01*
X275500000Y-115800000D02*
X277300000Y-115800000D01*
X276550000Y-117300000D02*
X276550000Y-120250000D01*
X276550000Y-120250000D02*
X268500000Y-120250000D01*
X277300000Y-115050000D02*
X275500000Y-115050000D01*
X277300000Y-115800000D02*
X277300000Y-115050000D01*
X277300000Y-117300000D02*
X276550000Y-117300000D01*
X277310000Y-115040000D02*
X259690000Y-115040000D01*
X277310000Y-121010000D02*
X277310000Y-115040000D01*
%TO.C,JST3*%
X292250000Y-196600000D02*
X292250000Y-197850000D01*
X292250000Y-197850000D02*
X293500000Y-197850000D01*
X292540000Y-179940000D02*
X292540000Y-197560000D01*
X292540000Y-197560000D02*
X298510000Y-197560000D01*
X292550000Y-179950000D02*
X292550000Y-181750000D01*
X292550000Y-181750000D02*
X293300000Y-181750000D01*
X292550000Y-183250000D02*
X292550000Y-194250000D01*
X292550000Y-194250000D02*
X293300000Y-194250000D01*
X292550000Y-195750000D02*
X292550000Y-197550000D01*
X292550000Y-197550000D02*
X293300000Y-197550000D01*
X293300000Y-179950000D02*
X292550000Y-179950000D01*
X293300000Y-181750000D02*
X293300000Y-179950000D01*
X293300000Y-183250000D02*
X292550000Y-183250000D01*
X293300000Y-194250000D02*
X293300000Y-183250000D01*
X293300000Y-195750000D02*
X292550000Y-195750000D01*
X293300000Y-197550000D02*
X293300000Y-195750000D01*
X294800000Y-179950000D02*
X294800000Y-180700000D01*
X294800000Y-180700000D02*
X297750000Y-180700000D01*
X294800000Y-196800000D02*
X296140000Y-196800000D01*
X294800000Y-197550000D02*
X294800000Y-196800000D01*
X297750000Y-180700000D02*
X297750000Y-188750000D01*
X297750000Y-188750000D02*
X297750000Y-195740000D01*
X298510000Y-179940000D02*
X292540000Y-179940000D01*
X298510000Y-197560000D02*
X298510000Y-179940000D01*
%TO.C,JST11*%
X191650000Y-194250000D02*
X191650000Y-195500000D01*
X191940000Y-194540000D02*
X191940000Y-200510000D01*
X191940000Y-200510000D02*
X204560000Y-200510000D01*
X191950000Y-194550000D02*
X191950000Y-195300000D01*
X191950000Y-195300000D02*
X193750000Y-195300000D01*
X191950000Y-196800000D02*
X192700000Y-196800000D01*
X192700000Y-196800000D02*
X192700000Y-198140000D01*
X192900000Y-194250000D02*
X191650000Y-194250000D01*
X193750000Y-194550000D02*
X191950000Y-194550000D01*
X193750000Y-195300000D02*
X193750000Y-194550000D01*
X195250000Y-194550000D02*
X195250000Y-195300000D01*
X195250000Y-195300000D02*
X201250000Y-195300000D01*
X198250000Y-199750000D02*
X193760000Y-199750000D01*
X201250000Y-194550000D02*
X195250000Y-194550000D01*
X201250000Y-195300000D02*
X201250000Y-194550000D01*
X202750000Y-194550000D02*
X202750000Y-195300000D01*
X202750000Y-195300000D02*
X204550000Y-195300000D01*
X203800000Y-196800000D02*
X203800000Y-199750000D01*
X203800000Y-199750000D02*
X198250000Y-199750000D01*
X204550000Y-194550000D02*
X202750000Y-194550000D01*
X204550000Y-195300000D02*
X204550000Y-194550000D01*
X204550000Y-196800000D02*
X203800000Y-196800000D01*
X204560000Y-194540000D02*
X191940000Y-194540000D01*
X204560000Y-200510000D02*
X204560000Y-194540000D01*
%TO.C,J7*%
X159150000Y-194250000D02*
X159150000Y-195500000D01*
X159440000Y-194540000D02*
X159440000Y-200510000D01*
X159440000Y-200510000D02*
X167060000Y-200510000D01*
X159450000Y-194550000D02*
X159450000Y-195300000D01*
X159450000Y-195300000D02*
X161250000Y-195300000D01*
X159450000Y-196800000D02*
X160200000Y-196800000D01*
X160200000Y-196800000D02*
X160200000Y-198140000D01*
X160400000Y-194250000D02*
X159150000Y-194250000D01*
X161250000Y-194550000D02*
X159450000Y-194550000D01*
X161250000Y-195300000D02*
X161250000Y-194550000D01*
X162750000Y-194550000D02*
X162750000Y-195300000D01*
X162750000Y-195300000D02*
X163750000Y-195300000D01*
X163250000Y-199750000D02*
X161260000Y-199750000D01*
X163750000Y-194550000D02*
X162750000Y-194550000D01*
X163750000Y-195300000D02*
X163750000Y-194550000D01*
X165250000Y-194550000D02*
X165250000Y-195300000D01*
X165250000Y-195300000D02*
X167050000Y-195300000D01*
X166300000Y-196800000D02*
X166300000Y-199750000D01*
X166300000Y-199750000D02*
X163250000Y-199750000D01*
X167050000Y-194550000D02*
X165250000Y-194550000D01*
X167050000Y-195300000D02*
X167050000Y-194550000D01*
X167050000Y-196800000D02*
X166300000Y-196800000D01*
X167060000Y-194540000D02*
X159440000Y-194540000D01*
X167060000Y-200510000D02*
X167060000Y-194540000D01*
%TO.C,J8*%
X258350000Y-177100000D02*
X258350000Y-189950000D01*
X258350000Y-189950000D02*
X266650000Y-189950000D01*
X260950000Y-174250000D02*
X258350000Y-177100000D01*
X264100000Y-174250000D02*
X260950000Y-174250000D01*
X266650000Y-177100000D02*
X264100000Y-174250000D01*
X266650000Y-189950000D02*
X266650000Y-177100000D01*
%TO.C,U2*%
D12*
X264400000Y-171600000D02*
X246400000Y-171600000D01*
X246400000Y-138600000D01*
X264400000Y-138600000D01*
X264400000Y-171600000D01*
D13*
%TO.C,J2*%
X175650000Y-194250000D02*
X175650000Y-195500000D01*
X175940000Y-194540000D02*
X175940000Y-200510000D01*
X175940000Y-200510000D02*
X183560000Y-200510000D01*
X175950000Y-194550000D02*
X175950000Y-195300000D01*
X175950000Y-195300000D02*
X177750000Y-195300000D01*
X175950000Y-196800000D02*
X176700000Y-196800000D01*
X176700000Y-196800000D02*
X176700000Y-198140000D01*
X176900000Y-194250000D02*
X175650000Y-194250000D01*
X177750000Y-194550000D02*
X175950000Y-194550000D01*
X177750000Y-195300000D02*
X177750000Y-194550000D01*
X179250000Y-194550000D02*
X179250000Y-195300000D01*
X179250000Y-195300000D02*
X180250000Y-195300000D01*
X179750000Y-199750000D02*
X177760000Y-199750000D01*
X180250000Y-194550000D02*
X179250000Y-194550000D01*
X180250000Y-195300000D02*
X180250000Y-194550000D01*
X181750000Y-194550000D02*
X181750000Y-195300000D01*
X181750000Y-195300000D02*
X183550000Y-195300000D01*
X182800000Y-196800000D02*
X182800000Y-199750000D01*
X182800000Y-199750000D02*
X179750000Y-199750000D01*
X183550000Y-194550000D02*
X181750000Y-194550000D01*
X183550000Y-195300000D02*
X183550000Y-194550000D01*
X183550000Y-196800000D02*
X182800000Y-196800000D01*
X183560000Y-194540000D02*
X175940000Y-194540000D01*
X183560000Y-200510000D02*
X183560000Y-194540000D01*
D14*
%TO.C,S1*%
X280150000Y-173900000D02*
X282850000Y-173900000D01*
X280150000Y-184100000D02*
X280150000Y-173900000D01*
X282850000Y-173900000D02*
X282850000Y-184100000D01*
X282850000Y-184100000D02*
X280150000Y-184100000D01*
X280650000Y-179700000D02*
G75*
G02*
X280550000Y-179700000I-50000J0D01*
G01*
X280550000Y-179700000D02*
G75*
G02*
X280650000Y-179700000I50000J0D01*
G01*
D13*
%TO.C,U1*%
X268980000Y-129713000D02*
X286020000Y-129713000D01*
X268980000Y-150287000D02*
X268980000Y-129713000D01*
X286020000Y-129713000D02*
X286020000Y-150287000D01*
X286020000Y-150287000D02*
X268980000Y-150287000D01*
X273020000Y-131999000D02*
G75*
G02*
X270020000Y-131999000I-1500000J0D01*
G01*
X270020000Y-131999000D02*
G75*
G02*
X273020000Y-131999000I1500000J0D01*
G01*
X273020000Y-148001000D02*
G75*
G02*
X270020000Y-148001000I-1500000J0D01*
G01*
X270020000Y-148001000D02*
G75*
G02*
X273020000Y-148001000I1500000J0D01*
G01*
%TO.C,JST2*%
X292750000Y-162600000D02*
X292750000Y-163850000D01*
X292750000Y-163850000D02*
X294000000Y-163850000D01*
X293040000Y-145940000D02*
X293040000Y-163560000D01*
X293040000Y-163560000D02*
X299010000Y-163560000D01*
X293050000Y-145950000D02*
X293050000Y-147750000D01*
X293050000Y-147750000D02*
X293800000Y-147750000D01*
X293050000Y-149250000D02*
X293050000Y-160250000D01*
X293050000Y-160250000D02*
X293800000Y-160250000D01*
X293050000Y-161750000D02*
X293050000Y-163550000D01*
X293050000Y-163550000D02*
X293800000Y-163550000D01*
X293800000Y-145950000D02*
X293050000Y-145950000D01*
X293800000Y-147750000D02*
X293800000Y-145950000D01*
X293800000Y-149250000D02*
X293050000Y-149250000D01*
X293800000Y-160250000D02*
X293800000Y-149250000D01*
X293800000Y-161750000D02*
X293050000Y-161750000D01*
X293800000Y-163550000D02*
X293800000Y-161750000D01*
X295300000Y-145950000D02*
X295300000Y-146700000D01*
X295300000Y-146700000D02*
X298250000Y-146700000D01*
X295300000Y-162800000D02*
X296640000Y-162800000D01*
X295300000Y-163550000D02*
X295300000Y-162800000D01*
X298250000Y-146700000D02*
X298250000Y-154750000D01*
X298250000Y-154750000D02*
X298250000Y-161740000D01*
X299010000Y-145940000D02*
X293040000Y-145940000D01*
X299010000Y-163560000D02*
X299010000Y-145940000D01*
%TD*%
M02*
