M48
; DRILL file {KiCad 9.0.4} date 2026-04-29T11:10:33+0200
; FORMAT={-:-/ absolute / inch / decimal}
; #@! TF.CreationDate,2026-04-29T11:10:33+02:00
; #@! TF.GenerationSoftware,Kicad,Pcbnew,9.0.4
; #@! TF.FileFunction,NonPlated,1,2,NPTH
FMAT,2
INCH
; #@! TA.AperFunction,NonPlated,NPTH,ComponentDrill
T1C0.0472
; #@! TA.AperFunction,NonPlated,NPTH,ComponentDrill
T2C0.0984
; #@! TA.AperFunction,NonPlated,NPTH,ComponentDrill
T3C0.1260
%
G90
G05
T1
X5.5079Y-7.8346
X5.7047Y-5.0591
X6.315Y-7.8346
X6.9646Y-7.8346
X7.5945Y-7.8346
X8.0866Y-5.0197
X8.3031Y-7.8346
X8.8386Y-7.7953
X9.7638Y-7.7953
X10.2618Y-4.7047
X10.689Y-7.7953
X11.0591Y-4.7047
X11.128Y-6.6526
X11.3425Y-6.1614
X11.6929Y-7.7402
X11.7126Y-6.4016
X11.9478Y-5.1713
T2
X10.6898Y-5.1962
T3
X5.3528Y-4.5425
X5.6028Y-6.4425
X6.5528Y-4.7425
X6.5528Y-5.8425
X8.5528Y-6.4425
X8.6028Y-4.5425
M30
