%TF.GenerationSoftware,KiCad,Pcbnew,9.0.4*%
%TF.CreationDate,2026-04-29T11:10:31+02:00*%
%TF.ProjectId,Atlas V,41746c61-7320-4562-9e6b-696361645f70,rev?*%
%TF.SameCoordinates,Original*%
%TF.FileFunction,Soldermask,Bot*%
%TF.FilePolarity,Negative*%
%FSLAX46Y46*%
G04 Gerber Fmt 4.6, Leading zero omitted, Abs format (unit mm)*
G04 Created by KiCad (PCBNEW 9.0.4) date 2026-04-29 11:10:31*
%MOMM*%
%LPD*%
G01*
G04 APERTURE LIST*
G04 Aperture macros list*
%AMRoundRect*
0 Rectangle with rounded corners*
0 $1 Rounding radius*
0 $2 $3 $4 $5 $6 $7 $8 $9 X,Y pos of 4 corners*
0 Add a 4 corners polygon primitive as box body*
4,1,4,$2,$3,$4,$5,$6,$7,$8,$9,$2,$3,0*
0 Add four circle primitives for the rounded corners*
1,1,$1+$1,$2,$3*
1,1,$1+$1,$4,$5*
1,1,$1+$1,$6,$7*
1,1,$1+$1,$8,$9*
0 Add four rect primitives between the rounded corners*
20,1,$1+$1,$2,$3,$4,$5,0*
20,1,$1+$1,$4,$5,$6,$7,0*
20,1,$1+$1,$6,$7,$8,$9,0*
20,1,$1+$1,$8,$9,$2,$3,0*%
G04 Aperture macros list end*
%ADD10RoundRect,0.250000X-0.625000X0.400000X-0.625000X-0.400000X0.625000X-0.400000X0.625000X0.400000X0*%
%ADD11C,2.300000*%
%ADD12RoundRect,0.250000X-0.925000X0.875000X-0.925000X-0.875000X0.925000X-0.875000X0.925000X0.875000X0*%
%ADD13C,1.200000*%
%ADD14RoundRect,0.250000X-0.600000X-1.000000X0.600000X-1.000000X0.600000X1.000000X-0.600000X1.000000X0*%
%ADD15O,1.700000X2.500000*%
%ADD16O,2.500000X1.700000*%
%ADD17C,3.200000*%
%ADD18O,1.600000X2.500000*%
%ADD19O,2.300000X1.727200*%
%ADD20O,2.300000X1.720000*%
%ADD21RoundRect,1.500000X-1.500000X1.500000X-1.500000X-1.500000X1.500000X-1.500000X1.500000X1.500000X0*%
%ADD22C,6.000000*%
%ADD23O,1.500000X2.200000*%
%ADD24C,2.100000*%
%ADD25C,1.512000*%
%ADD26O,2.704000X2.704000*%
%ADD27O,2.500000X1.524000*%
G04 APERTURE END LIST*
D10*
%TO.C,R3*%
X150622000Y-157809000D03*
X150622000Y-160909000D03*
%TD*%
%TO.C,R2*%
X147828000Y-157809000D03*
X147828000Y-160909000D03*
%TD*%
D11*
%TO.C,F2*%
X271526000Y-185029000D03*
X276606000Y-185039000D03*
%TD*%
D12*
%TO.C,C3*%
X248158000Y-166741000D03*
X248158000Y-171841000D03*
%TD*%
D13*
%TO.C,J4*%
X282650000Y-168975000D03*
D14*
X284250000Y-166975000D03*
D15*
X286750000Y-166975000D03*
%TD*%
D13*
%TO.C,J6*%
X210900000Y-199000000D03*
D14*
X212500000Y-197000000D03*
D15*
X215000000Y-197000000D03*
%TD*%
D13*
%TO.C,J1*%
X144900000Y-128500000D03*
D15*
X146500000Y-126500000D03*
X149000000Y-126500000D03*
X151500000Y-126500000D03*
X154000000Y-126500000D03*
X156500000Y-126500000D03*
X159000000Y-126500000D03*
%TD*%
D13*
%TO.C,JST1*%
X303475000Y-131350000D03*
D16*
X301475000Y-129750000D03*
X301475000Y-127250000D03*
X301475000Y-124750000D03*
X301475000Y-122250000D03*
X301475000Y-119750000D03*
X301475000Y-117250000D03*
%TD*%
D13*
%TO.C,JST6*%
X248000000Y-198000000D03*
D15*
X249600000Y-196000000D03*
X252100000Y-196000000D03*
X254600000Y-196000000D03*
X257100000Y-196000000D03*
X259600000Y-196000000D03*
X262100000Y-196000000D03*
%TD*%
D13*
%TO.C,JST7*%
X271500000Y-198000000D03*
D15*
X273100000Y-196000000D03*
X275600000Y-196000000D03*
X278100000Y-196000000D03*
X280600000Y-196000000D03*
X283100000Y-196000000D03*
X285600000Y-196000000D03*
%TD*%
D13*
%TO.C,JST5*%
X224500000Y-198000000D03*
D15*
X226100000Y-196000000D03*
X228600000Y-196000000D03*
X231100000Y-196000000D03*
X233600000Y-196000000D03*
X236100000Y-196000000D03*
X238600000Y-196000000D03*
%TD*%
D13*
%TO.C,J3*%
X205400000Y-127500000D03*
D15*
X207000000Y-125500000D03*
X209500000Y-125500000D03*
X212000000Y-125500000D03*
X214500000Y-125500000D03*
X217000000Y-125500000D03*
X219500000Y-125500000D03*
%TD*%
D13*
%TO.C,JST9*%
X280900000Y-119500000D03*
D15*
X282500000Y-117500000D03*
X285000000Y-117500000D03*
X287500000Y-117500000D03*
X290000000Y-117500000D03*
X292500000Y-117500000D03*
X295000000Y-117500000D03*
%TD*%
D17*
%TO.C,A1*%
X218510000Y-115380000D03*
X217240000Y-163640000D03*
D18*
X204540000Y-115380000D03*
D17*
X166440000Y-148400000D03*
X166440000Y-120460000D03*
X142310000Y-163640000D03*
X135960000Y-115380000D03*
D18*
X196920000Y-115380000D03*
X194380000Y-115380000D03*
D19*
X166013000Y-143320000D03*
D20*
X138800000Y-163640000D03*
D19*
X135660000Y-163640000D03*
D18*
X181680000Y-115380000D03*
X179140000Y-115380000D03*
X176600000Y-115380000D03*
X174060000Y-115380000D03*
X171520000Y-115380000D03*
X168980000Y-115380000D03*
X166440000Y-115380000D03*
X163900000Y-115380000D03*
X158820000Y-115380000D03*
X156280000Y-115380000D03*
X153740000Y-115380000D03*
X151200000Y-115380000D03*
X148660000Y-115380000D03*
X146120000Y-115380000D03*
X143580000Y-115380000D03*
X141040000Y-115380000D03*
X208604000Y-163640000D03*
X168980000Y-163640000D03*
X171520000Y-163640000D03*
X174060000Y-163640000D03*
X176600000Y-163640000D03*
X179140000Y-163640000D03*
X181680000Y-163640000D03*
X184220000Y-163640000D03*
X186760000Y-163640000D03*
X190824000Y-163640000D03*
X193364000Y-163640000D03*
X195904000Y-163640000D03*
X198444000Y-163640000D03*
X200984000Y-163640000D03*
X203524000Y-163640000D03*
X163900000Y-163640000D03*
X161360000Y-163640000D03*
X158820000Y-163640000D03*
X156280000Y-163640000D03*
X153740000Y-163640000D03*
X151200000Y-163640000D03*
X148660000Y-163640000D03*
X146120000Y-163640000D03*
D20*
X138800000Y-161100000D03*
D19*
X135660000Y-161100000D03*
D20*
X138800000Y-158560000D03*
D19*
X135660000Y-158560000D03*
D20*
X138800000Y-156020000D03*
D19*
X135660000Y-156020000D03*
D20*
X138800000Y-153480000D03*
D19*
X135660000Y-153480000D03*
D20*
X138800000Y-150940000D03*
D19*
X135660000Y-150940000D03*
D20*
X138800000Y-148400000D03*
D19*
X135660000Y-148400000D03*
D20*
X138800000Y-145860000D03*
D19*
X135660000Y-145860000D03*
D20*
X138800000Y-143320000D03*
D19*
X135660000Y-143320000D03*
D20*
X138800000Y-140780000D03*
D19*
X135660000Y-140780000D03*
D20*
X138800000Y-138240000D03*
D19*
X135660000Y-138240000D03*
D20*
X138800000Y-135700000D03*
D19*
X135660000Y-135700000D03*
D20*
X138800000Y-133160000D03*
D19*
X135660000Y-133160000D03*
D20*
X138800000Y-130620000D03*
D19*
X135660000Y-130620000D03*
D20*
X138800000Y-128080000D03*
D19*
X135660000Y-128080000D03*
D20*
X138800000Y-125540000D03*
D19*
X135660000Y-125540000D03*
D20*
X138800000Y-123000000D03*
D19*
X135660000Y-123000000D03*
D18*
X206064000Y-163640000D03*
X191840000Y-115380000D03*
X189300000Y-115380000D03*
D19*
X166013000Y-138240000D03*
D20*
X138800000Y-120460000D03*
D19*
X135660000Y-120460000D03*
D18*
X202000000Y-115380000D03*
D20*
X169153000Y-143320000D03*
D19*
X166013000Y-140780000D03*
D18*
X199460000Y-115380000D03*
D20*
X169153000Y-138240000D03*
X169153000Y-140780000D03*
D18*
X213684000Y-163640000D03*
X211144000Y-163640000D03*
X186760000Y-115380000D03*
%TD*%
D13*
%TO.C,JST4*%
X288100000Y-156500000D03*
D15*
X286500000Y-158500000D03*
X284000000Y-158500000D03*
X281500000Y-158500000D03*
X279000000Y-158500000D03*
X276500000Y-158500000D03*
X274000000Y-158500000D03*
%TD*%
D13*
%TO.C,JST10*%
X139900000Y-199000000D03*
D15*
X141500000Y-197000000D03*
X144000000Y-197000000D03*
X146500000Y-197000000D03*
X149000000Y-197000000D03*
%TD*%
D13*
%TO.C,JST8*%
X260650000Y-119500000D03*
D15*
X262250000Y-117500000D03*
X264750000Y-117500000D03*
X267250000Y-117500000D03*
X269750000Y-117500000D03*
X272250000Y-117500000D03*
X274750000Y-117500000D03*
%TD*%
D13*
%TO.C,JST3*%
X297000000Y-196600000D03*
D16*
X295000000Y-195000000D03*
X295000000Y-192500000D03*
X295000000Y-190000000D03*
X295000000Y-187500000D03*
X295000000Y-185000000D03*
X295000000Y-182500000D03*
%TD*%
D13*
%TO.C,JST11*%
X192900000Y-199000000D03*
D15*
X194500000Y-197000000D03*
X197000000Y-197000000D03*
X199500000Y-197000000D03*
X202000000Y-197000000D03*
%TD*%
D13*
%TO.C,J7*%
X160400000Y-199000000D03*
D14*
X162000000Y-197000000D03*
D15*
X164500000Y-197000000D03*
%TD*%
D21*
%TO.C,J8*%
X262500000Y-178500000D03*
D22*
X262500000Y-185700000D03*
%TD*%
D23*
%TO.C,U2*%
X251630000Y-170450000D03*
X251630000Y-167310000D03*
X254170000Y-170450000D03*
X254170000Y-167310000D03*
X256710000Y-170450000D03*
X256710000Y-167310000D03*
X259250000Y-170450000D03*
X259250000Y-167310000D03*
D24*
X248130000Y-141200000D03*
X250670000Y-141200000D03*
X260130000Y-141200000D03*
X262670000Y-141200000D03*
%TD*%
D13*
%TO.C,J2*%
X176900000Y-199000000D03*
D14*
X178500000Y-197000000D03*
D15*
X181000000Y-197000000D03*
%TD*%
D25*
%TO.C,S1*%
X281500000Y-179000000D03*
X281500000Y-181540000D03*
X281500000Y-176460000D03*
%TD*%
D26*
%TO.C,U1*%
X271520000Y-131983000D03*
D27*
X284220000Y-148763000D03*
X284220000Y-146223000D03*
X284220000Y-143683000D03*
X284220000Y-141143000D03*
X284220000Y-138603000D03*
X284220000Y-136063000D03*
X284220000Y-133523000D03*
X284220000Y-130983000D03*
%TD*%
D13*
%TO.C,JST2*%
X297500000Y-162600000D03*
D16*
X295500000Y-161000000D03*
X295500000Y-158500000D03*
X295500000Y-156000000D03*
X295500000Y-153500000D03*
X295500000Y-151000000D03*
X295500000Y-148500000D03*
%TD*%
M02*
